<?xml version="1.0" encoding="UTF-8"?>
<svg version="1.1" xmlns="http://www.w3.org/2000/svg" width="677" height="369">
<path d="M0 0 C1.54406311 -0.00300017 3.08812548 -0.00640464 4.63218689 -0.01017761 C8.78725446 -0.0189326 12.94230139 -0.02135205 17.0973773 -0.0219934 C19.7025101 -0.02270853 22.3076378 -0.02485148 24.91276932 -0.02749062 C34.02697325 -0.0367145 43.14116265 -0.04082905 52.25537109 -0.04003906 C60.71060474 -0.03943843 69.16577456 -0.04999502 77.62099206 -0.06578273 C84.91654804 -0.07891291 92.21208329 -0.0842207 99.50765097 -0.08358365 C103.84904016 -0.08333036 108.19037246 -0.08608767 112.53174973 -0.0967617 C116.6178262 -0.10653608 120.70379246 -0.10645884 124.78987312 -0.09924507 C126.27681326 -0.09821087 127.76376062 -0.10049153 129.25068855 -0.10660553 C149.02910337 -0.18257158 167.643916 1.31315274 182.63916016 15.54272461 C197.58227029 30.87085917 199.31260739 49.50736278 199.32763672 69.88208008 C199.3322738 71.35658896 199.33729963 72.83109667 199.34268188 74.30560303 C199.35572265 78.28942084 199.36223452 82.27322187 199.36669254 86.25705767 C199.36963692 88.7536227 199.37374422 91.25018329 199.37819672 93.74674606 C199.39185004 101.58012068 199.40152713 109.41348496 199.40539861 117.24687064 C199.40987347 126.24813718 199.4274039 135.24925143 199.4563992 144.25047171 C199.47810984 151.23597091 199.48810787 158.22142755 199.48943973 165.20696008 C199.49048111 169.36623985 199.49624508 173.52537606 199.51425934 177.6846199 C199.53090327 181.60324508 199.5328177 185.52162125 199.52412033 189.44026947 C199.52335858 190.86593423 199.52757646 192.29161332 199.53757858 193.71724319 C199.66252511 212.66075015 196.17888944 229.91295777 182.54541016 243.96166992 C167.92600262 257.38079769 151.45230114 259.45268118 132.38842773 259.41992188 C130.70687637 259.42427603 129.02532699 259.42946152 127.34378052 259.43540955 C122.80009943 259.44873812 118.25650184 259.44938487 113.71280503 259.44684625 C109.90618755 259.44577191 106.09958665 259.45067192 102.29297274 259.45545167 C93.30280566 259.46652659 84.31268036 259.46699625 75.32250977 259.4609375 C66.08171036 259.45490502 56.84106351 259.46719491 47.60029012 259.48850757 C39.63812669 259.50618869 31.67601153 259.51211453 23.71382922 259.50886983 C18.97107618 259.50706647 14.22843186 259.50959726 9.48569679 259.52358437 C5.01959665 259.5362638 0.55373204 259.53412418 -3.91236496 259.52117348 C-5.53959423 259.51882962 -7.1668406 259.52146243 -8.79405022 259.5297966 C-27.92201459 259.62060144 -45.62734994 257.15410224 -59.83349609 243.14526367 C-60.50764276 241.81569664 -61.1762354 240.48325866 -61.83349609 239.14526367 C-62.82349609 238.81526367 -63.81349609 238.48526367 -64.83349609 238.14526367 C-72.34902137 228.01461831 -74.95626192 215.74258305 -75.0546875 203.44458008 C-75.0661594 202.4680825 -75.0776313 201.49158493 -75.08945084 200.48549652 C-75.1261522 197.23930502 -75.15579415 193.99309265 -75.18505859 190.74682617 C-75.20874816 188.45766956 -75.23268883 186.16851553 -75.25686646 183.87936401 C-75.33231313 176.50973067 -75.39597298 169.14001619 -75.45849609 161.77026367 C-75.46939774 160.52775848 -75.48029938 159.2852533 -75.49153137 158.00509644 C-76.01849596 97.94087825 -76.01849596 97.94087825 -75.58349609 70.64526367 C-75.57070618 69.57802063 -75.55791626 68.51077759 -75.54473877 67.41119385 C-75.32448315 50.71357906 -74.11231582 35.05190213 -63.83349609 21.14526367 C-63.46095703 20.61545898 -63.08841797 20.0856543 -62.70458984 19.53979492 C-54.21513765 8.46549459 -42.35112094 2.96948088 -28.83349609 1.14526367 C-19.22567995 0.15998448 -9.64735752 -0.00379311 0 0 Z " fill="#FAF5EA" transform="translate(276.83349609375,54.854736328125)"/>
<path d="M0 0 C-1.50070487 4.03147936 -3.81985395 5.44384289 -7.4375 7.625 C-8.40558594 8.21539062 -9.37367188 8.80578125 -10.37109375 9.4140625 C-11.23863281 9.93742187 -12.10617187 10.46078125 -13 11 C-13.99 11.66 -14.98 12.32 -16 13 C-16 13.66 -16 14.32 -16 15 C-15.01 15.495 -15.01 15.495 -14 16 C-14 15.34 -14 14.68 -14 14 C-9.79975258 10.67391575 -5.1576857 8.41836357 0 7 C0 6.34 0 5.68 0 5 C1.32 5 2.64 5 4 5 C2.86506462 8.40480613 1.82011175 8.92131671 -1.10546875 10.7578125 C-3.4256518 12.27908716 -5.61301116 13.93416488 -7.8125 15.625 C-8.58207031 16.21539062 -9.35164063 16.80578125 -10.14453125 17.4140625 C-12.10136128 18.87827551 -12.10136128 18.87827551 -13 21 C-7.26686444 17.68699953 -1.83195485 14.28697785 3.30859375 10.1015625 C5 9 5 9 8 9 C7.61297486 11.40915898 7.28647923 12.71251389 5.54125977 14.46386719 C4.93080811 14.90375977 4.32035645 15.34365234 3.69140625 15.796875 C3.02689453 16.28027344 2.36238281 16.76367188 1.67773438 17.26171875 C0.97970703 17.75285156 0.28167969 18.24398437 -0.4375 18.75 C-1.13166016 19.25660156 -1.82582031 19.76320313 -2.54101562 20.28515625 C-7.71275901 24 -7.71275901 24 -10 24 C-10 24.66 -10 25.32 -10 26 C-4.0032911 23.86783684 0.52836091 20.53458058 5.546875 16.64453125 C8 15 8 15 11 15 C10.68309819 18.04501301 10.00340387 18.99676103 7.7421875 21.1484375 C6.79601562 21.88320312 5.84984375 22.61796875 4.875 23.375 C3.88371094 24.15617187 2.89242187 24.93734375 1.87109375 25.7421875 C0.92363281 26.48726562 -0.02382813 27.23234375 -1 28 C-2.36184806 29.15769095 -3.7175038 30.32277288 -5.0625 31.5 C-9.01490325 34.86374745 -10.27345071 35.02621066 -15.35522461 34.67895508 C-21.46686837 34.34711056 -26.0704776 34.16245664 -30.9375 38.3125 C-31.69675781 39.03566406 -32.45601563 39.75882813 -33.23828125 40.50390625 C-36.77688305 43.70216163 -40.61319626 46.18705916 -44.625 48.75 C-45.33003662 49.20930908 -46.03507324 49.66861816 -46.76147461 50.1418457 C-55.4632658 55.73128032 -62.88841123 58.70280855 -73.109375 60.33398438 C-79.49612712 61.49941261 -83.42943474 63.49468374 -87.375 68.875 C-88.60227567 73.04773726 -88.36230612 76.91308163 -87 81 C-83.73621267 83.17585822 -82.84095685 83.24605016 -79.06958008 83.22705078 C-77.56836357 83.22682419 -77.56836357 83.22682419 -76.03681946 83.22659302 C-74.95861435 83.21627045 -73.88040924 83.20594788 -72.76953125 83.1953125 C-71.66397385 83.1924826 -70.55841644 83.18965271 -69.4193573 83.18673706 C-65.88362872 83.17553002 -62.3481522 83.15042427 -58.8125 83.125 C-56.41732136 83.11497089 -54.02213876 83.10584492 -51.62695312 83.09765625 C-45.75121589 83.07558897 -39.87562595 83.04210618 -34 83 C-34.92941406 82.54496094 -35.85882813 82.08992188 -36.81640625 81.62109375 C-45.05569029 77.4256301 -49.11970946 71.30574587 -53 63 C-53.69921875 59.62109375 -53.69921875 59.62109375 -54 57 C-52.54462432 56.16151196 -51.08559627 55.32936066 -49.625 54.5 C-48.81289063 54.0359375 -48.00078125 53.571875 -47.1640625 53.09375 C-45 52 -45 52 -43 52 C-42.62488281 52.80824219 -42.24976563 53.61648437 -41.86328125 54.44921875 C-38.67747056 61.10170506 -36.1878954 65.96738609 -30.1875 70.3125 C-25.38660181 71.82135372 -21.47133574 71.63057246 -16.9375 69.6875 C-12.0780546 65.24162442 -7.44124821 60.55732659 -6.77539062 53.68017578 C-6.71964476 50.25512308 -6.8032549 46.87723161 -7.08251953 43.46264648 C-7.23120042 41.22765902 -7.33991425 39.21469901 -7 37 C-3.832224 34.08608758 -2.34407823 34 2 34 C6.31645214 34.77079503 8.3078772 36.48528413 11 40 C13.53530212 44.18948284 15 47.02213237 15 52 C15.94875 52 16.8975 52 17.875 52 C23.60036778 52.79616566 28.09475933 56.97338988 32 61 C34.12476508 65.23061534 34.12476508 65.23061534 33.625 68.3125 C33.41875 68.869375 33.2125 69.42625 33 70 C28.74377616 69.23996003 26.28698489 67.04567522 23 64.375 C18.0896759 60.99915218 11.71974975 61.34122123 6 62 C-0.16374667 63.96817456 -4.5452135 67.69779881 -7.91796875 73.1796875 C-9.76438706 77.99237348 -9.78843004 82.84464192 -9.89453125 87.9375 C-10 91 -10 91 -11 92 C-12.50418739 92.09311889 -14.01271356 92.11746028 -15.51977539 92.11352539 C-16.96115623 92.11341209 -16.96115623 92.11341209 -18.43165588 92.11329651 C-19.476436 92.10813522 -20.52121613 92.10297394 -21.59765625 92.09765625 C-22.66165146 92.0962413 -23.72564667 92.09482635 -24.82188416 92.09336853 C-28.23545083 92.08775064 -31.648953 92.07519511 -35.0625 92.0625 C-37.37044176 92.05748731 -39.67838455 92.052924 -41.98632812 92.04882812 C-47.65757426 92.0377754 -53.32878253 92.02101987 -59 92 C-59.30325195 92.62632324 -59.60650391 93.25264648 -59.91894531 93.89794922 C-62.1470232 98.23032288 -65.50852434 101.28668555 -69.875 103.375 C-76.16918893 104.63383779 -80.8095523 104.93188152 -86.33984375 101.31640625 C-91.95015492 96.86775951 -94.71678274 91.96100945 -97.12109375 85.28125 C-97.96302313 82.84836576 -97.96302313 82.84836576 -99.75 80.375 C-102.04125695 76.02161179 -101.5680082 72.00329773 -100.2734375 67.4375 C-98.36048168 62.21186458 -96.34459534 58.62049611 -92 55 C-90.700625 53.700625 -90.700625 53.700625 -89.375 52.375 C-83.36750208 47.50816624 -74.79664029 46.96302551 -67.4375 45.625 C-57.42361062 43.66069814 -50.01797888 39.14969276 -41.55078125 33.640625 C-38.43012273 31.63346332 -35.23316267 29.818654 -32 28 C-31.01 27.34 -30.02 26.68 -29 26 C-28.60354629 23.80371268 -28.60354629 23.80371268 -28.625 21.3125 C-28.19610168 15.99722441 -27.1185509 12.53018649 -23 9 C-19.4519246 7.01218937 -15.7628118 5.52831292 -12 4 C-10.51309644 3.24419852 -9.03286246 2.47499749 -7.5625 1.6875 C-4 0 -4 0 0 0 Z " fill="#F8853D" transform="translate(372,96)"/>
<path d="M0 0 C0.99 0.495 0.99 0.495 2 1 C1.34 2.65 0.68 4.3 0 6 C0.99 6.33 1.98 6.66 3 7 C3 7.66 3 8.32 3 9 C3.639375 9.12375 4.27875 9.2475 4.9375 9.375 C5.618125 9.58125 6.29875 9.7875 7 10 C7.495 10.99 7.495 10.99 8 12 C7.154375 11.649375 6.30875 11.29875 5.4375 10.9375 C1.00964576 9.72990339 -2.84987609 9.92493804 -7 12 C-6.91878906 13.24394531 -6.83757812 14.48789063 -6.75390625 15.76953125 C-6.32882687 25.10720207 -6.21411116 32.04442539 -11.98046875 39.87109375 C-15.83024207 43.92936543 -18.99444917 46.79252922 -24.625 47.375 C-29.6996702 47.29195994 -33.24381829 45.32953301 -37 42 C-38.73797613 39.72848105 -39.75466716 37.629036 -41 35 C-41.5775 33.906875 -42.155 32.81375 -42.75 31.6875 C-44 29 -44 29 -44 27 C-44.62648438 27.3609375 -45.25296875 27.721875 -45.8984375 28.09375 C-46.71570313 28.5578125 -47.53296875 29.021875 -48.375 29.5 C-49.18710937 29.9640625 -49.99921875 30.428125 -50.8359375 30.90625 C-53 32 -53 32 -55 32 C-51.03341052 42.04652581 -47.68007073 50.39391587 -38 56 C-35.30712955 56.96173945 -32.82986217 57.49466747 -30 58 C-30 58.33 -30 58.66 -30 59 C-37.75953912 59.0760007 -45.51898242 59.12857918 -53.27880859 59.16479492 C-55.91914456 59.1798909 -58.55945542 59.20036954 -61.19970703 59.22631836 C-64.99257603 59.26266491 -68.78511377 59.27971845 -72.578125 59.29296875 C-73.76053772 59.30845261 -74.94295044 59.32393646 -76.16119385 59.33988953 C-77.26203308 59.34011612 -78.36287231 59.34034271 -79.49707031 59.34057617 C-80.46525696 59.34723801 -81.4334436 59.35389984 -82.43096924 59.36076355 C-85.46938464 58.93408531 -86.81068728 58.12261943 -89 56 C-90.20643566 52.38069302 -90.32268559 49.80768995 -90 46 C-87.68314914 41.62372615 -85.11027416 38.72917802 -81 36 C-78.04273725 35.12974384 -75.04029253 34.67600557 -72 34.1875 C-56.48855657 31.26501142 -41.45870016 22.10423608 -30.02734375 11.16796875 C-26.24306561 8.45793731 -23.44241257 8.54920642 -19 8.9375 C-13.10145997 9.41980543 -9.72580807 8.83713571 -5 5 C-3.29671681 3.3707726 -1.61838719 1.71358643 0 0 Z " fill="#FBF7EB" transform="translate(373,121)"/>
<path d="M0 0 C1.05832031 -0.02578125 2.11664063 -0.0515625 3.20703125 -0.078125 C6.1875 0.25 6.1875 0.25 8.52734375 1.16015625 C11.2973069 4.64705104 10.86791017 8.61344124 10.9375 12.9375 C10.96714844 13.83017578 10.99679687 14.72285156 11.02734375 15.64257812 C11.09801427 17.84514277 11.15071939 20.04665131 11.1875 22.25 C11.98800781 21.25033203 11.98800781 21.25033203 12.8046875 20.23046875 C14.80566686 17.75520882 16.82503666 15.29685882 18.86132812 12.85058594 C19.74121742 11.78862824 20.61500485 10.72158337 21.48242188 9.64941406 C22.73861237 8.10355407 24.02531153 6.58264589 25.3125 5.0625 C26.46105469 3.67998047 26.46105469 3.67998047 27.6328125 2.26953125 C30.1875 0.25 30.1875 0.25 33.80859375 -0.18359375 C37.1875 0.25 37.1875 0.25 40.125 2.375 C42.58600367 5.80548997 42.64731863 7.11679884 42.1875 11.25 C40.71875 13.7421875 40.71875 13.7421875 38.6875 16.125 C37.965625 16.97578125 37.24375 17.8265625 36.5 18.703125 C33.18726138 22.35161416 29.75623039 25.85211309 26.1875 29.25 C27.0125 30.19875 27.8375 31.1475 28.6875 32.125 C32.01216884 35.98539746 35.14166981 39.98591437 38.2578125 44.015625 C40.08809174 46.1348957 41.88479382 47.67392555 44.1875 49.25 C43.93077938 53.0152358 43.59424134 54.80839511 41 57.625 C37.61941938 59.57822436 36.03326631 59.87788021 32.1875 59.25 C27.796507 56.65477995 24.51210536 53.73256099 21.125 49.9375 C20.30902344 49.03386719 19.49304688 48.13023437 18.65234375 47.19921875 C15.99352284 44.01790371 13.59736809 40.62381532 11.1875 37.25 C10.8575 44.18 10.5275 51.11 10.1875 58.25 C6.74079109 59.97335446 2.96353226 59.62173375 -0.8125 59.25 C-3.8125 57.9375 -3.8125 57.9375 -5.8125 56.25 C-6.81028778 53.25663665 -6.93917397 51.27763766 -6.94189453 48.15185547 C-6.94504669 47.11423065 -6.94819885 46.07660583 -6.95144653 45.00753784 C-6.9494223 43.88872223 -6.94739807 42.76990662 -6.9453125 41.6171875 C-6.94626923 40.46960968 -6.94722595 39.32203186 -6.94821167 38.13967896 C-6.94889242 35.71372421 -6.94704546 33.28776765 -6.94287109 30.86181641 C-6.93751164 27.13309681 -6.9428247 23.40449714 -6.94921875 19.67578125 C-6.94855814 17.3229164 -6.94727734 14.97005162 -6.9453125 12.6171875 C-6.94733673 11.49432343 -6.94936096 10.37145935 -6.95144653 9.21456909 C-6.94829437 8.1832486 -6.94514221 7.1519281 -6.94189453 6.08935547 C-6.94109894 5.17685028 -6.94030334 4.26434509 -6.93948364 3.32418823 C-6.67742669 -0.9563272 -3.638078 0.05278952 0 0 Z " fill="#753338" transform="translate(319.8125,216.75)"/>
<path d="M0 0 C-1.50070487 4.03147936 -3.81985395 5.44384289 -7.4375 7.625 C-8.40558594 8.21539062 -9.37367188 8.80578125 -10.37109375 9.4140625 C-11.23863281 9.93742187 -12.10617187 10.46078125 -13 11 C-13.99 11.66 -14.98 12.32 -16 13 C-16 13.66 -16 14.32 -16 15 C-15.01 15.495 -15.01 15.495 -14 16 C-14 15.34 -14 14.68 -14 14 C-9.79975258 10.67391575 -5.1576857 8.41836357 0 7 C0 6.34 0 5.68 0 5 C1.32 5 2.64 5 4 5 C2.86506462 8.40480613 1.82011175 8.92131671 -1.10546875 10.7578125 C-3.4256518 12.27908716 -5.61301116 13.93416488 -7.8125 15.625 C-8.58207031 16.21539062 -9.35164063 16.80578125 -10.14453125 17.4140625 C-12.10136128 18.87827551 -12.10136128 18.87827551 -13 21 C-7.26686444 17.68699953 -1.83195485 14.28697785 3.30859375 10.1015625 C5 9 5 9 8 9 C7.61297486 11.40915898 7.28647923 12.71251389 5.54125977 14.46386719 C4.93080811 14.90375977 4.32035645 15.34365234 3.69140625 15.796875 C3.02689453 16.28027344 2.36238281 16.76367188 1.67773438 17.26171875 C0.97970703 17.75285156 0.28167969 18.24398437 -0.4375 18.75 C-1.13166016 19.25660156 -1.82582031 19.76320313 -2.54101562 20.28515625 C-7.71275901 24 -7.71275901 24 -10 24 C-10 24.66 -10 25.32 -10 26 C-4.0032911 23.86783684 0.52836091 20.53458058 5.546875 16.64453125 C8 15 8 15 11 15 C10.68309819 18.04501301 10.00340387 18.99676103 7.7421875 21.1484375 C6.79601562 21.88320312 5.84984375 22.61796875 4.875 23.375 C3.88371094 24.15617187 2.89242187 24.93734375 1.87109375 25.7421875 C0.92363281 26.48726562 -0.02382813 27.23234375 -1 28 C-2.36184806 29.15769095 -3.7175038 30.32277288 -5.0625 31.5 C-9.01490325 34.86374745 -10.27345071 35.02621066 -15.35522461 34.67895508 C-21.46686837 34.34711056 -26.0704776 34.16245664 -30.9375 38.3125 C-31.69675781 39.03566406 -32.45601563 39.75882813 -33.23828125 40.50390625 C-36.77688305 43.70216163 -40.61319626 46.18705916 -44.625 48.75 C-45.33003662 49.20930908 -46.03507324 49.66861816 -46.76147461 50.1418457 C-54.60386315 55.17925893 -61.53729629 58.46179603 -70.75 60.125 C-72.41242863 60.43494432 -74.07393664 60.74987703 -75.734375 61.0703125 C-76.45850586 61.20195801 -77.18263672 61.33360352 -77.92871094 61.46923828 C-80.15235097 62.03903949 -81.98791423 62.90667227 -84 64 C-83.67 63.01 -83.34 62.02 -83 61 C-82.34 61 -81.68 61 -81 61 C-81 60.34 -81 59.68 -81 59 C-80.11477661 58.82609741 -80.11477661 58.82609741 -79.21166992 58.64868164 C-76.5365443 58.12197433 -73.86202044 57.59227135 -71.1875 57.0625 C-70.25873047 56.88009766 -69.32996094 56.69769531 -68.37304688 56.50976562 C-67.48037109 56.33251953 -66.58769531 56.15527344 -65.66796875 55.97265625 C-64.84578857 55.81031494 -64.0236084 55.64797363 -63.17651367 55.48071289 C-60.83778735 55.00381086 -60.83778735 55.00381086 -58 54 C-57.505 53.01 -57.505 53.01 -57 52 C-74.43554463 53.42321084 -74.43554463 53.42321084 -89.4375 61.25 C-91.42075813 64.74053431 -92.71083053 68.19695007 -94 72 C-95.32 72 -96.64 72 -98 72 C-98 75.3 -98 78.6 -98 82 C-100 81 -100 81 -101 78 C-101.595687 71.20916815 -100.20007678 66.02490026 -97 60 C-94.625 57.1875 -94.625 57.1875 -92 55 C-90.700625 53.700625 -90.700625 53.700625 -89.375 52.375 C-83.36750208 47.50816624 -74.79664029 46.96302551 -67.4375 45.625 C-57.42361062 43.66069814 -50.01797888 39.14969276 -41.55078125 33.640625 C-38.43012273 31.63346332 -35.23316267 29.818654 -32 28 C-31.01 27.34 -30.02 26.68 -29 26 C-28.60354629 23.80371268 -28.60354629 23.80371268 -28.625 21.3125 C-28.19610168 15.99722441 -27.1185509 12.53018649 -23 9 C-19.4519246 7.01218937 -15.7628118 5.52831292 -12 4 C-10.51309644 3.24419852 -9.03286246 2.47499749 -7.5625 1.6875 C-4 0 -4 0 0 0 Z " fill="#FAAD50" transform="translate(372,96)"/>
<path d="M0 0 C4.63635933 2.65068624 7.36328486 6.04185904 10 10.6875 C11.30741494 15.79830385 11.3269583 20.4942403 9.625 25.5 C6.41487606 30.26340972 2.96086061 34.26250438 -2.25 36.8125 C-8.76910752 38.0098871 -13.5884199 38.00072471 -19.41796875 34.78125 C-23.90051663 31.45399797 -27.29661033 26.90231368 -28.3125 21.375 C-29.03865654 14.3554868 -27.52313817 9.11051882 -23.3125 3.375 C-16.59622757 -2.5347909 -8.12952628 -3.62161227 0 0 Z " fill="#763134" transform="translate(393.3125,162.625)"/>
<path d="M0 0 C-2.63262304 5.87277448 -6.44288812 8.06988646 -12 11 C-12.66 11 -13.32 11 -14 11 C-10.03341052 21.04652581 -6.68007073 29.39391587 3 35 C5.69287045 35.96173945 8.17013783 36.49466747 11 37 C11 37.33 11 37.66 11 38 C3.24046088 38.0760007 -4.51898242 38.12857918 -12.27880859 38.16479492 C-14.91914456 38.1798909 -17.55945542 38.20036954 -20.19970703 38.22631836 C-23.99257603 38.26266491 -27.78511377 38.27971845 -31.578125 38.29296875 C-32.76053772 38.30845261 -33.94295044 38.32393646 -35.16119385 38.33988953 C-36.26203308 38.34011612 -37.36287231 38.34034271 -38.49707031 38.34057617 C-39.46525696 38.34723801 -40.4334436 38.35389984 -41.43096924 38.36076355 C-44.46938464 37.93408531 -45.81068728 37.12261943 -48 35 C-49.20643566 31.38069302 -49.32268559 28.80768995 -49 25 C-46.68314914 20.62372615 -44.11027416 17.72917802 -40 15 C-37.0428591 14.1297797 -34.04046903 13.67440892 -31 13.1875 C-20.85746024 11.32131156 -13.30366735 7.64266391 -4.76953125 1.78125 C-2 0 -2 0 0 0 Z " fill="#FCF5E8" transform="translate(332,142)"/>
<path d="M0 0 C-0.33 0.99 -0.66 1.98 -1 3 C-3.57170464 3.8962001 -5.98432794 4.58264018 -8.625 5.1875 C-9.67494141 5.45336914 -9.67494141 5.45336914 -10.74609375 5.72460938 C-15.27268402 6.81216678 -19.34865129 7.17701983 -24 7 C-24 7.66 -24 8.32 -24 9 C-24.99 9.495 -24.99 9.495 -26 10 C-29.66052279 15.16910188 -31.77521878 19.53984348 -31 26 C-30.24849977 29.27773504 -30.24849977 29.27773504 -27 31 C-24.67839328 31.32722171 -24.67839328 31.32722171 -22.06958008 31.31884766 C-21.06876907 31.33871735 -20.06795807 31.35858704 -19.03681946 31.37905884 C-17.95861435 31.39061005 -16.88040924 31.40216125 -15.76953125 31.4140625 C-14.66397385 31.43342865 -13.55841644 31.4527948 -12.4193573 31.4727478 C-8.88381699 31.53258836 -5.34824421 31.5789473 -1.8125 31.625 C0.58269659 31.66317562 2.9778794 31.7022271 5.37304688 31.7421875 C11.24857564 31.83829358 17.12418725 31.92332804 23 32 C22.37222656 32.29648438 21.74445313 32.59296875 21.09765625 32.8984375 C18.9410526 33.89003961 18.9410526 33.89003961 17.4375 35.625 C16 37 16 37 13 37 C13 37.66 13 38.32 13 39 C11.60587891 38.9690625 11.60587891 38.9690625 10.18359375 38.9375 C3.00156981 38.85433309 3.00156981 38.85433309 -3.3125 41.7421875 C-4.4614231 43.14243753 -5.56450009 44.58184648 -6.61328125 46.05859375 C-9.05246103 49.47344545 -12.12968369 50.70989456 -16 52 C-22.06388599 52.50532383 -26.09765648 51.86175174 -31 48 C-37.55472645 42.3770729 -41.38368909 33.67162066 -42.30859375 25.16015625 C-42.3125 22.6875 -42.3125 22.6875 -42 19 C-40.35 19.33 -38.7 19.66 -37 20 C-36.9175 19.13375 -36.835 18.2675 -36.75 17.375 C-35.62238682 12.30074071 -32.8722431 8.42110798 -29 5 C-20.37317778 0.79862554 -9.49514099 -0.44163446 0 0 Z " fill="#F29546" transform="translate(315,148)"/>
<path d="M0 0 C4.41745733 3.313093 7.1594967 7.8280829 9 13 C9 14.32 9 15.64 9 17 C9.94875 17 10.8975 17 11.875 17 C17.60036778 17.79616566 22.09475933 21.97338988 26 26 C28.12476508 30.23061534 28.12476508 30.23061534 27.625 33.3125 C27.315625 34.1478125 27.315625 34.1478125 27 35 C22.74377616 34.23996003 20.28698489 32.04567522 17 29.375 C12.10433992 26.0092337 5.70366084 26.31309091 0 27 C-5.68817071 29.10575905 -10.01342527 32.49902853 -14 37 C-14 35.68 -14 34.36 -14 33 C-13.34 33 -12.68 33 -12 33 C-11.67 31.68 -11.34 30.36 -11 29 C-9.68 29 -8.36 29 -7 29 C-6.505 27.515 -6.505 27.515 -6 26 C-5.34 26 -4.68 26 -4 26 C-4 25.34 -4 24.68 -4 24 C-9.90025729 25.03254503 -12.39435729 28.36681978 -15.97265625 32.80859375 C-19.16164152 36.25564719 -21.65523331 37.81126082 -26.33984375 38.46875 C-37.25262021 38.56354068 -37.25262021 38.56354068 -40.75 35.8125 C-42.83243712 33.2094536 -44.08845252 31.19041617 -45 28 C-44.54109375 28.40992188 -44.0821875 28.81984375 -43.609375 29.2421875 C-42.99578125 29.78101563 -42.3821875 30.31984375 -41.75 30.875 C-41.14671875 31.40867188 -40.5434375 31.94234375 -39.921875 32.4921875 C-36.06884476 35.51509334 -33.00043576 36.48661581 -28.01171875 36.29296875 C-22.4954245 35.48962493 -19.37256999 31.62875265 -16.125 27.4375 C-12.25843734 21.24259417 -12.50574484 15.51490458 -13.08251953 8.46264648 C-13.23120042 6.22765902 -13.33991425 4.21469901 -13 2 C-9.06117958 -1.62316583 -4.94885734 -1.61944315 0 0 Z " fill="#FBB858" transform="translate(378,131)"/>
<path d="M0 0 C2.48528326 1.41320029 4.26601796 2.65332916 6.375 4.5 C9.09559567 7.2359036 9.09559567 7.2359036 13.1875 6.8125 C13.1875 7.4725 13.1875 8.1325 13.1875 8.8125 C12.1975 9.1425 11.2075 9.4725 10.1875 9.8125 C9.8575 10.8025 9.5275 11.7925 9.1875 12.8125 C8.75179687 12.41417969 8.31609375 12.01585937 7.8671875 11.60546875 C1.87731821 6.27681879 -2.97014356 3.09927012 -11.21484375 3.41015625 C-15.79516736 4.11958983 -19.32449867 5.75783488 -22.8125 8.8125 C-26.59075357 14.16926922 -27.43262922 19.40449805 -26.8125 25.8125 C-26.27287181 28.21796126 -25.5939651 30.46810471 -24.8125 32.8125 C-25.9571875 32.5340625 -25.9571875 32.5340625 -27.125 32.25 C-29.90217375 31.58430827 -29.90217375 31.58430827 -32.8125 32.8125 C-34.25407527 32.91144751 -35.69961613 32.95796111 -37.14453125 32.97021484 C-38.01553467 32.98047699 -38.88653809 32.99073914 -39.78393555 33.00131226 C-40.72148682 33.00861359 -41.65903809 33.01591492 -42.625 33.0234375 C-44.60677925 33.0514952 -46.58854998 33.08015958 -48.5703125 33.109375 C-51.69758972 33.15071766 -54.82470608 33.18760251 -57.95214844 33.21386719 C-60.96843293 33.24140016 -63.98399275 33.28725873 -67 33.3359375 C-68.4063269 33.3408168 -68.4063269 33.3408168 -69.84106445 33.34579468 C-71.14756958 33.37064438 -71.14756958 33.37064438 -72.48046875 33.39599609 C-73.62938599 33.40812637 -73.62938599 33.40812637 -74.80151367 33.42050171 C-77.32305209 33.91202109 -78.13541874 34.92427188 -79.8125 36.8125 C-80.4725 37.080625 -81.1325 37.34875 -81.8125 37.625 C-84.71427336 39.34792793 -85.40627367 41.82027409 -86.8125 44.8125 C-89.68775669 44.86675013 -92.56197646 44.90629277 -95.4375 44.9375 C-96.24574219 44.95425781 -97.05398438 44.97101563 -97.88671875 44.98828125 C-102.5675718 45.02633697 -106.48179629 44.82461157 -110.8125 42.8125 C-112.8125 39.8125 -112.8125 39.8125 -113.1875 37.3125 C-113.9662925 34.19733 -115.13357435 33.45442217 -117.8125 31.8125 C-117.4825 30.8225 -117.1525 29.8325 -116.8125 28.8125 C-116.1525 28.8125 -115.4925 28.8125 -114.8125 28.8125 C-113.87437532 30.25319147 -112.93874075 31.6956045 -112.01953125 33.1484375 C-109.38639934 36.77858053 -106.08010689 39.38996437 -101.8125 40.8125 C-95.95790073 41.20280662 -92.01698418 40.84056352 -86.8125 37.8125 C-85.78226636 36.47721224 -84.77889079 35.12096323 -83.79663086 33.75 C-80.89638791 30.37356216 -79.05563331 29.22652596 -74.61157227 28.8125 C-72.61775763 28.77219368 -70.62276262 28.77431372 -68.62890625 28.8125 C-67.57340073 28.80162354 -66.5178952 28.79074707 -65.43040466 28.77954102 C-62.07755348 28.75346123 -58.72776818 28.78217998 -55.375 28.8125 C-53.0943853 28.80440525 -50.81378032 28.79272541 -48.53320312 28.77734375 C-42.95907841 28.74754901 -37.3864513 28.7626714 -31.8125 28.8125 C-31.78671875 27.79929688 -31.7609375 26.78609375 -31.734375 25.7421875 C-31.67805819 24.39058403 -31.62071167 23.03902319 -31.5625 21.6875 C-31.54832031 21.02234375 -31.53414063 20.3571875 -31.51953125 19.671875 C-31.20735884 13.30355781 -28.59238396 9.83290882 -24.5 5.1875 C-16.81735088 -1.60181782 -9.90095037 -3.08390257 0 0 Z " fill="#F8E6CF" transform="translate(392.8125,158.1875)"/>
<path d="M0 0 C0.495 1.98 0.495 1.98 1 4 C-2.75 7 -2.75 7 -5 7 C-5 7.99 -5 8.98 -5 10 C-14.64810863 16.16647517 -23.77151417 18.69007393 -35.00805664 20.5168457 C-37.21325881 21.05172683 -39.0118722 21.91898159 -41 23 C-40.67 22.01 -40.34 21.02 -40 20 C-39.34 20 -38.68 20 -38 20 C-38 19.34 -38 18.68 -38 18 C-37.40985107 17.88406494 -36.81970215 17.76812988 -36.21166992 17.64868164 C-33.5365443 17.12197433 -30.86202044 16.59227135 -28.1875 16.0625 C-27.25873047 15.88009766 -26.32996094 15.69769531 -25.37304688 15.50976562 C-24.48037109 15.33251953 -23.58769531 15.15527344 -22.66796875 14.97265625 C-21.84578857 14.81031494 -21.0236084 14.64797363 -20.17651367 14.48071289 C-17.83778735 14.00381086 -17.83778735 14.00381086 -15 13 C-14.67 12.34 -14.34 11.68 -14 11 C-31.43554463 12.42321084 -31.43554463 12.42321084 -46.4375 20.25 C-48.42075813 23.74053431 -49.71083053 27.19695007 -51 31 C-52.32 31 -53.64 31 -55 31 C-55 34.3 -55 37.6 -55 41 C-57 40 -57 40 -58 37 C-58.595687 30.20916815 -57.20007678 25.02490026 -54 19 C-51.625 16.1875 -51.625 16.1875 -49 14 C-48.13375 13.13375 -47.2675 12.2675 -46.375 11.375 C-39.43877466 5.80155949 -29.66962336 5.6437368 -21.15722656 4.77319336 C-15.76647924 4.18917543 -11.05651193 3.02260477 -6 1 C-5.505 1.99 -5.505 1.99 -5 3 C-3.35 2.01 -1.7 1.02 0 0 Z " fill="#F98A42" transform="translate(329,137)"/>
<path d="M0 0 C3.4375 1.3125 3.4375 1.3125 7 3 C8.69988366 8.09965097 8.6683726 13.03419823 6.9375 18.125 C3.72737606 22.88840972 0.27336061 26.88750438 -4.9375 29.4375 C-12.48359888 30.82351816 -17.62044178 30.31393034 -24 26 C-26.625 23.625 -26.625 23.625 -28 21 C-27.25 17.6875 -27.25 17.6875 -26 15 C-23 15 -23 15 -19.9375 17 C-15.4736433 19.64982132 -11.06367011 20.00392764 -6 19 C-3.185821 17.10744542 -3.185821 17.10744542 -2 14 C-1.70501497 10.63717063 -1.69967126 7.98289404 -2.6875 4.75 C-2.790625 4.1725 -2.89375 3.595 -3 3 C-1.5625 1.25 -1.5625 1.25 0 0 Z " fill="#672F2F" transform="translate(396,170)"/>
<path d="M0 0 C2.97672584 1.77280561 5.42804007 3.85608015 7 7 C7.50312928 11.36045376 7.24536764 13.55015933 5.125 17.4375 C2.64536771 20.07299489 0.57022522 20.495667 -3 20.6875 C-6.87868484 20.46206228 -7.86517859 20.10455538 -11.0625 17.625 C-13.87713202 13.81162758 -14.55044624 11.7705341 -14 7 C-10.30863055 1.03595906 -6.96661383 -0.69666138 0 0 Z " fill="#F3D7C3" transform="translate(388,170)"/>
<path d="M0 0 C0.51949219 0.32613281 1.03898437 0.65226563 1.57421875 0.98828125 C4.68099991 2.93504431 7.78758956 4.87345761 10.9375 6.75 C13 8 13 8 14 9 C15.62139437 9.12494616 17.24884122 9.17571624 18.875 9.1875 C20.20144531 9.20876953 20.20144531 9.20876953 21.5546875 9.23046875 C24.25766726 9.17068424 24.25766726 9.17068424 27 7 C29.48046875 6.8046875 29.48046875 6.8046875 32.1875 6.875 C33.08855469 6.89304688 33.98960937 6.91109375 34.91796875 6.9296875 C35.60503906 6.95289063 36.29210937 6.97609375 37 7 C36.13580316 12.09539433 32.87146784 14.82443651 29 18 C24.54036389 20.18237512 19.91295123 20.75363718 15 20 C8.41062721 17.15975311 3.89877429 12.71124065 0.625 6.3125 C0 4 0 4 0 0 Z " fill="#632C2C" transform="translate(276,180)"/>
<path d="M0 0 C-0.58554941 3.03421057 -1.25821635 6.00146713 -2 9 C-2.29519531 10.25296875 -2.59039062 11.5059375 -2.89453125 12.796875 C-5.55725216 22.90756793 -5.55725216 22.90756793 -9.4453125 25.8515625 C-13.0805405 27.3247307 -16.07882487 28 -20 28 C-19.27874633 22.78349088 -17.93713875 17.88856572 -16.375 12.875 C-16.15199219 12.07707031 -15.92898438 11.27914062 -15.69921875 10.45703125 C-14.39111914 6.31125525 -13.31922832 3.74356566 -9.50390625 1.4609375 C-5.99036265 -0.00401825 -3.75607231 -0.36644608 0 0 Z " fill="#EDA35F" transform="translate(323,112)"/>
<path d="M0 0 C-1.50070487 4.03147936 -3.81985395 5.44384289 -7.4375 7.625 C-8.40558594 8.21539062 -9.37367188 8.80578125 -10.37109375 9.4140625 C-11.23863281 9.93742187 -12.10617187 10.46078125 -13 11 C-13.99 11.66 -14.98 12.32 -16 13 C-16 13.66 -16 14.32 -16 15 C-15.34 15.33 -14.68 15.66 -14 16 C-14 15.34 -14 14.68 -14 14 C-9.79975258 10.67391575 -5.1576857 8.41836357 0 7 C0 6.34 0 5.68 0 5 C1.32 5 2.64 5 4 5 C2.86506462 8.40480613 1.82011175 8.92131671 -1.10546875 10.7578125 C-3.4256518 12.27908716 -5.61301116 13.93416488 -7.8125 15.625 C-8.58207031 16.21539062 -9.35164063 16.80578125 -10.14453125 17.4140625 C-12.10136128 18.87827551 -12.10136128 18.87827551 -13 21 C-7.26686444 17.68699953 -1.83195485 14.28697785 3.30859375 10.1015625 C5 9 5 9 8 9 C7.14527543 14.15322219 3.82113823 15.9264661 -0.1875 18.875 C-0.84814453 19.39835937 -1.50878906 19.92171875 -2.18945312 20.4609375 C-4.09820058 21.87789514 -5.81133043 23.06920605 -8 24 C-11.48828125 23.3203125 -11.48828125 23.3203125 -14 22 C-14 20.68 -14 19.36 -14 18 C-15.32 17.67 -16.64 17.34 -18 17 C-18.33 15.68 -18.66 14.36 -19 13 C-22.12225907 12.65731765 -22.12225907 12.65731765 -24.125 15 C-26.52730892 18.84369428 -26.6956341 21.51060292 -27 26 C-27.33 26 -27.66 26 -28 26 C-28.53479529 20.09348316 -28.72300964 15.25604292 -24.8125 10.5234375 C-21.06156613 7.37071291 -16.49327572 5.82499994 -12 4 C-10.51309644 3.24419852 -9.03286246 2.47499749 -7.5625 1.6875 C-4 0 -4 0 0 0 Z " fill="#E1BE7D" transform="translate(372,96)"/>
<path d="M0 0 C0.33 0 0.66 0 1 0 C1.02687279 1.81242052 1.04633715 3.62495233 1.0625 5.4375 C1.07410156 6.44683594 1.08570313 7.45617187 1.09765625 8.49609375 C1 11 1 11 0 12 C-1.47354348 12.09304018 -2.95150591 12.11746265 -4.42797852 12.11352539 C-5.36887833 12.11344986 -6.30977814 12.11337433 -7.27919006 12.11329651 C-8.30209641 12.10813522 -9.32500275 12.10297394 -10.37890625 12.09765625 C-11.42070541 12.0962413 -12.46250458 12.09482635 -13.53587341 12.09336853 C-16.87811094 12.0877508 -20.22028257 12.0751953 -23.5625 12.0625 C-25.82226466 12.05748728 -28.08203037 12.05292398 -30.34179688 12.04882812 C-35.89455391 12.03777561 -41.44727225 12.02102024 -47 12 C-47 11.67 -47 11.34 -47 11 C-42.38 11 -37.76 11 -33 11 C-33 10.34 -33 9.68 -33 9 C-22.59813002 1.86728916 -11.97931988 2.47881652 0 4 C0 2.68 0 1.36 0 0 Z " fill="#F7B55C" transform="translate(361,176)"/>
<path d="M0 0 C-0.33 0.99 -0.66 1.98 -1 3 C-3.57170464 3.8962001 -5.98432794 4.58264018 -8.625 5.1875 C-9.67494141 5.45336914 -9.67494141 5.45336914 -10.74609375 5.72460938 C-15.27268402 6.81216678 -19.34865129 7.17701983 -24 7 C-24 7.66 -24 8.32 -24 9 C-24.99 9.495 -24.99 9.495 -26 10 C-26.33 10.99 -26.66 11.98 -27 13 C-27.99 13.33 -28.98 13.66 -30 14 C-32.28752167 17.50445239 -32.34571188 20.80668204 -32.55859375 24.87890625 C-33.09652832 27.46384845 -34.05315286 28.2821937 -36 30 C-36.33 30.66 -36.66 31.32 -37 32 C-40.875 30.25 -40.875 30.25 -42 28 C-42.06950541 26.45976004 -42.08452357 24.91665012 -42.0625 23.375 C-42.05347656 22.55773437 -42.04445313 21.74046875 -42.03515625 20.8984375 C-42.02355469 20.27195313 -42.01195312 19.64546875 -42 19 C-40.35 19.33 -38.7 19.66 -37 20 C-36.9175 19.13375 -36.835 18.2675 -36.75 17.375 C-35.62238682 12.30074071 -32.8722431 8.42110798 -29 5 C-20.37317778 0.79862554 -9.49514099 -0.44163446 0 0 Z " fill="#EA6E39" transform="translate(315,148)"/>
<path d="M0 0 C4.76337159 1.55874558 6.99133633 5.50231661 9.234375 9.69140625 C10.78614055 12.78880389 10.921875 13.94341782 10.921875 17.62890625 C11.870625 17.62890625 12.819375 17.62890625 13.796875 17.62890625 C19.52224278 18.42507191 24.01663433 22.60229613 27.921875 26.62890625 C30.04664008 30.85952159 30.04664008 30.85952159 29.546875 33.94140625 C29.340625 34.49828125 29.134375 35.05515625 28.921875 35.62890625 C25.48237136 35.01692249 23.40623015 33.70831778 20.671875 31.56640625 C19.96546875 31.01855469 19.2590625 30.47070312 18.53125 29.90625 C18.00015625 29.48472656 17.4690625 29.06320313 16.921875 28.62890625 C18.734375 28.00390625 18.734375 28.00390625 20.921875 27.62890625 C23.921875 29.62890625 23.921875 29.62890625 24.921875 31.62890625 C25.911875 31.95890625 26.901875 32.28890625 27.921875 32.62890625 C25.67942201 28.14400026 23.35831197 25.96811847 18.921875 23.62890625 C15.61532353 22.75407873 12.30289219 22.13672701 8.921875 21.62890625 C8.921875 20.96890625 8.921875 20.30890625 8.921875 19.62890625 C7.931875 19.62890625 6.941875 19.62890625 5.921875 19.62890625 C6.18229167 17.61067708 6.44270833 15.59244792 6.703125 13.57421875 C6.9591235 11.62392281 6.9591235 11.62392281 6.921875 9.62890625 C5.931875 9.29890625 4.941875 8.96890625 3.921875 8.62890625 C3.365 7.80390625 2.808125 6.97890625 2.234375 6.12890625 C-1.04681442 2.58167444 -3.34449221 2.86558789 -8.078125 2.62890625 C-7.99433594 3.50933594 -7.91054688 4.38976562 -7.82421875 5.296875 C-7.72238281 6.45832031 -7.62054688 7.61976563 -7.515625 8.81640625 C-7.41121094 9.96496094 -7.30679687 11.11351562 -7.19921875 12.296875 C-7.08952515 15.31521824 -7.33810111 17.71814561 -8.078125 20.62890625 C-8.738125 20.62890625 -9.398125 20.62890625 -10.078125 20.62890625 C-10.408125 14.68890625 -10.738125 8.74890625 -11.078125 2.62890625 C-6.38115225 -0.1892774 -5.15497301 -0.92053089 0 0 Z " fill="#F1CF8B" transform="translate(376.078125,130.37109375)"/>
<path d="M0 0 C1.216875 0.433125 2.43375 0.86625 3.6875 1.3125 C3.3575 2.9625 3.0275 4.6125 2.6875 6.3125 C4.3375 6.6425 5.9875 6.9725 7.6875 7.3125 C7.6875 8.3025 7.6875 9.2925 7.6875 10.3125 C10.6575 10.8075 10.6575 10.8075 13.6875 11.3125 C12.6975 11.8075 12.6975 11.8075 11.6875 12.3125 C11.6875 12.9725 11.6875 13.6325 11.6875 14.3125 C5.1727579 17.39219627 1.49648754 17.4115112 -5.3125 15.3125 C-6.64419685 14.9726877 -7.97707061 14.63733418 -9.3125 14.3125 C-9.75936492 9.1983793 -10.06261298 5.5314336 -7.3125 1.0625 C-3.99431453 -0.87310819 -3.52663816 -0.8581695 0 0 Z " fill="#FAAF4F" transform="translate(355.3125,111.6875)"/>
<path d="M0 0 C0.33 0 0.66 0 1 0 C0.25 6.75 0.25 6.75 -2 9 C-2.103125 9.763125 -2.20625 10.52625 -2.3125 11.3125 C-3.31254392 15.2217626 -4.75053851 16.61264054 -8 19 C-13.72682211 20.41474793 -19.26139905 20.12276975 -25 19 C-25 18.34 -25 17.68 -25 17 C-27.475 16.01 -27.475 16.01 -30 15 C-30 14.01 -30 13.02 -30 12 C-30.99 12 -31.98 12 -33 12 C-34.35439668 9.29120665 -34.06501451 6.99066732 -34 4 C-33.32904297 4.61488281 -33.32904297 4.61488281 -32.64453125 5.2421875 C-27.30201066 10.0037517 -23.50260043 12.48434062 -16.046875 12.24609375 C-9.30145553 11.43509866 -5.27317 7.88362286 -1 3 C-0.67 2.01 -0.34 1.02 0 0 Z " fill="#E9CBB8" transform="translate(402,187)"/>
<path d="M0 0 C0.66 0.33 1.32 0.66 2 1 C1.505 1.680625 1.01 2.36125 0.5 3.0625 C-1.32635616 6.63911414 -1.29408453 9.02985884 -1 13 C-0.24849977 16.27773504 -0.24849977 16.27773504 3 18 C5.32160672 18.32722171 5.32160672 18.32722171 7.93041992 18.31884766 C8.93123093 18.33871735 9.93204193 18.35858704 10.96318054 18.37905884 C12.04138565 18.39061005 13.11959076 18.40216125 14.23046875 18.4140625 C15.33602615 18.43342865 16.44158356 18.4527948 17.5806427 18.4727478 C21.11618301 18.53258836 24.65175579 18.5789473 28.1875 18.625 C30.58269659 18.66317562 32.9778794 18.7022271 35.37304688 18.7421875 C41.24857564 18.83829358 47.12418725 18.92332804 53 19 C53 19.33 53 19.66 53 20 C35.51 20.33 18.02 20.66 0 21 C0 21.99 0 22.98 0 24 C4.95 24.33 9.9 24.66 15 25 C15 24.34 15 23.68 15 23 C16.98 23.66 18.96 24.32 21 25 C17.12820251 27.96837808 14.97514218 29.16343362 10.0625 29.25 C9.18722656 29.27578125 8.31195313 29.3015625 7.41015625 29.328125 C4.49836513 28.93170611 3.90853209 28.14383056 2 26 C0.13260254 24.97812117 0.13260254 24.97812117 -1.875 24.125 C-5.74276059 22.28388887 -8.16540558 20.18891872 -11 17 C-9.68 17.33 -8.36 17.66 -7 18 C-6.67 17.01 -6.34 16.02 -6 15 C-5.34 14.67 -4.68 14.34 -4 14 C-3.64538376 12.03950138 -3.64538376 12.03950138 -3.5625 9.75 C-3.22165569 5.79241881 -2.4118103 3.25070084 0 0 Z " fill="#DE834F" transform="translate(285,161)"/>
<path d="M0 0 C-0.31690181 3.04501301 -0.99659613 3.99676103 -3.2578125 6.1484375 C-4.20398438 6.88320312 -5.15015625 7.61796875 -6.125 8.375 C-7.61193359 9.54675781 -7.61193359 9.54675781 -9.12890625 10.7421875 C-10.07636719 11.48726562 -11.02382813 12.23234375 -12 13 C-13.36184806 14.15769095 -14.7175038 15.32277288 -16.0625 16.5 C-20.01586517 19.8645661 -21.27415566 20.02452065 -26.35668945 19.67993164 C-32.73539239 19.33044353 -37.20229952 19.26960137 -42.3125 23.5625 C-43.06917969 24.28566406 -43.82585937 25.00882813 -44.60546875 25.75390625 C-48.6036419 29.5042318 -53.33283542 32.16066033 -58 35 C-58.33 34.34 -58.66 33.68 -59 33 C-57.824375 32.4121875 -57.824375 32.4121875 -56.625 31.8125 C-53.64843582 29.75725331 -53.01176437 28.40320742 -52 25 C-51.01 25 -50.02 25 -49 25 C-47.32900023 24.68911632 -45.66128463 24.35919668 -44 24 C-44 23.34 -44 22.68 -44 22 C-43.01 22 -42.02 22 -41 22 C-40.67 20.35 -40.34 18.7 -40 17 C-39.34 17 -38.68 17 -38 17 C-38 16.34 -38 15.68 -38 15 C-36.4375 14.3125 -36.4375 14.3125 -34 14 C-32.989375 14.515625 -31.97875 15.03125 -30.9375 15.5625 C-25.9776351 17.96662665 -21.11664639 16.28610099 -16 15 C-16 14.34 -16 13.68 -16 13 C-17.32 12.34 -18.64 11.68 -20 11 C-19.05125 10.484375 -18.1025 9.96875 -17.125 9.4375 C-12.9327348 7.06758682 -9.1033785 4.25032324 -5.234375 1.390625 C-3 0 -3 0 0 0 Z " fill="#E6A15A" transform="translate(383,111)"/>
<path d="M0 0 C1.75 1.52734375 1.75 1.52734375 3 3.0625 C3 4.0525 3 5.0425 3 6.0625 C-0.69798658 5.42491611 -0.69798658 5.42491611 -2.25 3.5625 C-5.09311067 1.12554799 -8.40867697 1.26957793 -12 1.0625 C-12.87527344 0.98644531 -13.75054687 0.91039062 -14.65234375 0.83203125 C-22.46811328 0.42644433 -27.75426844 2.38352886 -33.66796875 7.5078125 C-34.82766827 8.64477281 -35.92318877 9.84674538 -37 11.0625 C-37 9.7425 -37 8.4225 -37 7.0625 C-36.34 7.0625 -35.68 7.0625 -35 7.0625 C-34.67 5.7425 -34.34 4.4225 -34 3.0625 C-32.68 3.0625 -31.36 3.0625 -30 3.0625 C-29.67 2.0725 -29.34 1.0825 -29 0.0625 C-28.34 0.0625 -27.68 0.0625 -27 0.0625 C-27 -0.5975 -27 -1.2575 -27 -1.9375 C-27.66 -1.9375 -28.32 -1.9375 -29 -1.9375 C-29 -2.5975 -29 -3.2575 -29 -3.9375 C-8.18373381 -6.63590488 -8.18373381 -6.63590488 0 0 Z " fill="#F3A54C" transform="translate(401,156.9375)"/>
<path d="M0 0 C0.51949219 0.32613281 1.03898437 0.65226563 1.57421875 0.98828125 C4.68099991 2.93504431 7.78758956 4.87345761 10.9375 6.75 C13 8 13 8 14 9 C15.62139437 9.12494616 17.24884122 9.17571624 18.875 9.1875 C20.20144531 9.20876953 20.20144531 9.20876953 21.5546875 9.23046875 C24.25766726 9.17068424 24.25766726 9.17068424 27 7 C29.48046875 6.8046875 29.48046875 6.8046875 32.1875 6.875 C33.08855469 6.89304688 33.98960937 6.91109375 34.91796875 6.9296875 C35.60503906 6.95289063 36.29210937 6.97609375 37 7 C36.1724449 10.82442938 35.26626351 12.6549903 32 15 C29.24188682 15.33751289 26.79582344 15.18638823 24 15 C23.67 13.68 23.34 12.36 23 11 C21.35 11 19.7 11 18 11 C18 11.66 18 12.32 18 13 C15.69 13 13.38 13 11 13 C11 12.34 11 11.68 11 11 C10.34 11 9.68 11 9 11 C8.67 9.68 8.34 8.36 8 7 C5.69 7 3.38 7 1 7 C0.67 4.69 0.34 2.38 0 0 Z " fill="#662728" transform="translate(276,180)"/>
<path d="M0 0 C-1.25452587 6.06354172 -2.60028572 11.5068762 -7.875 15.375 C-10.63773314 16.18756857 -13.13771112 16.13010404 -16 16 C-15.05302372 6.68806656 -15.05302372 6.68806656 -13 3 C-10.46875 1.85546875 -10.46875 1.85546875 -7.5 1.1875 C-6.5203125 0.95417969 -5.540625 0.72085938 -4.53125 0.48046875 C-2 0 -2 0 0 0 Z " fill="#E95F36" transform="translate(309,157)"/>
<path d="M0 0 C0.66 0 1.32 0 2 0 C2.93812468 1.44069147 3.87375925 2.8831045 4.79296875 4.3359375 C7.42610066 7.96608053 10.73239311 10.57746437 15 12 C22.73358567 12.51557238 27.93808883 10.90838539 33.9375 5.8125 C34.96602092 4.88344044 35.98972083 3.94886403 37 3 C36.48455373 6.81430239 35.79433828 8.42061082 33 11 C32.47986328 12.27037109 32.47986328 12.27037109 31.94921875 13.56640625 C30 16 30 16 28.16796875 16.43896484 C25.82345105 16.56718066 23.53347581 16.5331393 21.1875 16.4375 C20.39279297 16.43169922 19.59808594 16.42589844 18.77929688 16.41992188 C14.20514691 16.32533647 10.22547811 15.92184839 6 14 C4 11 4 11 3.625 8.5 C2.8462075 5.38483 1.67892565 4.64192217 -1 3 C-0.67 2.01 -0.34 1.02 0 0 Z " fill="#E9CFBE" transform="translate(276,187)"/>
<path d="M0 0 C3.82143592 2.15488679 6.12379923 4.84991144 8.6875 8.375 C6.19685112 9.06207555 4.30863708 9.375 1.6875 9.375 C0.6975 10.035 -0.2925 10.695 -1.3125 11.375 C-2.6325 10.055 -3.9525 8.735 -5.3125 7.375 C-3.9925 6.055 -2.6725 4.735 -1.3125 3.375 C-3.37433633 3.29349256 -5.43711349 3.2355806 -7.5 3.1875 C-8.64855469 3.15269531 -9.79710937 3.11789063 -10.98046875 3.08203125 C-14.61615013 3.40169843 -16.30633683 4.41264349 -19.3125 6.375 C-22.125 6.0625 -22.125 6.0625 -24.3125 5.375 C-17.73857725 -1.95745229 -9.08366569 -4.10396238 0 0 Z " fill="#934746" transform="translate(393.3125,162.625)"/>
<path d="M0 0 C-0.33 0.99 -0.66 1.98 -1 3 C-1.66 3 -2.32 3 -3 3 C-3.12375 3.639375 -3.2475 4.27875 -3.375 4.9375 C-3.58125 5.618125 -3.7875 6.29875 -4 7 C-4.99 7.495 -4.99 7.495 -6 8 C-4.8509288 9.2981424 -4.8509288 9.2981424 -2 10 C-2 11.65 -2 13.3 -2 15 C-2.99 15.33 -3.98 15.66 -5 16 C-4.67 16.99 -4.34 17.98 -4 19 C7.25164604 19.85515946 18.40676275 20.10379909 29.6875 20 C32.67056896 19.97326029 35.65357477 19.95341789 38.63671875 19.9375 C39.93311279 19.92589844 41.22950684 19.91429687 42.56518555 19.90234375 C45.53032607 19.98664656 48.12737642 20.30135594 51 21 C51 21.33 51 21.66 51 22 C43.24046088 22.0760007 35.48101758 22.12857918 27.72119141 22.16479492 C25.08085544 22.1798909 22.44054458 22.20036954 19.80029297 22.22631836 C16.00742397 22.26266491 12.21488623 22.27971845 8.421875 22.29296875 C7.23946228 22.30845261 6.05704956 22.32393646 4.83880615 22.33988953 C3.73796692 22.34011612 2.63712769 22.34034271 1.50292969 22.34057617 C0.05064972 22.35056892 0.05064972 22.35056892 -1.43096924 22.36076355 C-4.46938464 21.93408531 -5.81068728 21.12261943 -8 19 C-9.20643566 15.38069302 -9.32268559 12.80768995 -9 9 C-3.98076923 0 -3.98076923 0 0 0 Z " fill="#FDE7CA" transform="translate(292,158)"/>
<path d="M0 0 C2.0625 0.4375 2.0625 0.4375 4 1 C4.57042254 11.88028169 4.57042254 11.88028169 1 16 C0.34 16 -0.32 16 -1 16 C-1.33 16.99 -1.66 17.98 -2 19 C-3.98 19 -5.96 19 -8 19 C-7.88601335 17.37419034 -7.75844341 15.74932843 -7.625 14.125 C-7.55539062 13.22007812 -7.48578125 12.31515625 -7.4140625 11.3828125 C-7 9 -7 9 -5 7 C-4.34 6.67 -3.68 6.34 -3 6 C-2.29788106 4.34795544 -1.63028587 2.68076231 -1 1 C-0.67 0.67 -0.34 0.34 0 0 Z " fill="#F4984F" transform="translate(315,117)"/>
<path d="M0 0 C1.11375 0.1546875 1.11375 0.1546875 2.25 0.3125 C2.25 2.3125 2.25 2.3125 1 3.875 C-0.75 5.3125 -0.75 5.3125 -2.875 5.8125 C-3.49375 5.9775 -4.1125 6.1425 -4.75 6.3125 C-5.08 7.3025 -5.41 8.2925 -5.75 9.3125 C-6.41 9.3125 -7.07 9.3125 -7.75 9.3125 C-8.03875 10.323125 -8.3275 11.33375 -8.625 12.375 C-9.66666667 16.02083333 -10.70833333 19.66666667 -11.75 23.3125 C-14.72 22.9825 -17.69 22.6525 -20.75 22.3125 C-20.42 20.0025 -20.09 17.6925 -19.75 15.3125 C-20.41 14.9825 -21.07 14.6525 -21.75 14.3125 C-20.76 14.126875 -19.77 13.94125 -18.75 13.75 C-12.66574625 12.02222003 -8.25085866 7.32793877 -4.5625 2.375 C-2.75 0.3125 -2.75 0.3125 0 0 Z " fill="#F9903F" transform="translate(371.75,154.6875)"/>
<path d="M0 0 C0.495 1.98 0.495 1.98 1 4 C-2.75 7 -2.75 7 -5 7 C-5 7.99 -5 8.98 -5 10 C-14.64810863 16.16647517 -23.77151417 18.69007393 -35.00805664 20.5168457 C-37.21325881 21.05172683 -39.0118722 21.91898159 -41 23 C-40.505 21.515 -40.505 21.515 -40 20 C-39.34 20 -38.68 20 -38 20 C-38 19.34 -38 18.68 -38 18 C-37.40985107 17.88406494 -36.81970215 17.76812988 -36.21166992 17.64868164 C-33.5365443 17.12197433 -30.86202044 16.59227135 -28.1875 16.0625 C-27.25873047 15.88009766 -26.32996094 15.69769531 -25.37304688 15.50976562 C-24.48037109 15.33251953 -23.58769531 15.15527344 -22.66796875 14.97265625 C-21.84578857 14.81031494 -21.0236084 14.64797363 -20.17651367 14.48071289 C-17.83778735 14.00381086 -17.83778735 14.00381086 -15 13 C-14.67 12.34 -14.34 11.68 -14 11 C-15.98 11 -17.96 11 -20 11 C-20 10.67 -20 10.34 -20 10 C-19.38511719 9.81824219 -18.77023437 9.63648438 -18.13671875 9.44921875 C-17.32847656 9.19785156 -16.52023437 8.94648438 -15.6875 8.6875 C-14.88699219 8.44386719 -14.08648437 8.20023438 -13.26171875 7.94921875 C-10.86066473 6.9415225 -9.77719425 5.85467411 -8 4 C-5.68351201 2.96157435 -3.35096976 1.9578025 -1 1 C-0.67 0.67 -0.34 0.34 0 0 Z " fill="#DD8352" transform="translate(329,137)"/>
<path d="M0 0 C1.0219601 3.18184739 0.94954615 5.32243328 0.1875 8.5625 C0.01605469 9.32691406 -0.15539062 10.09132812 -0.33203125 10.87890625 C-1 13 -1 13 -3 16 C-2.34 16.33 -1.68 16.66 -1 17 C-11.4712561 21.70956016 -22.75633298 23.14911714 -34 25 C-33.67 24.34 -33.34 23.68 -33 23 C-31.04183114 22.42321978 -29.0566772 21.93630036 -27.0625 21.5 C-22.55264579 20.64822101 -22.55264579 20.64822101 -19 18 C-19.99 17.01 -20.98 16.02 -22 15 C-21.195625 14.608125 -20.39125 14.21625 -19.5625 13.8125 C-16.76935262 12.23051809 -16.76935262 12.23051809 -16.1875 9.3125 C-16.0946875 8.1678125 -16.0946875 8.1678125 -16 7 C-15.34 7 -14.68 7 -14 7 C-14.59924224 11.19469571 -15.57499941 15.00999834 -17 19 C-15.84371094 18.566875 -15.84371094 18.566875 -14.6640625 18.125 C-13.66117187 17.75375 -12.65828125 17.3825 -11.625 17 C-10.62726563 16.62875 -9.62953125 16.2575 -8.6015625 15.875 C-6 15 -6 15 -4 15 C-3.79503906 14.16855469 -3.59007812 13.33710938 -3.37890625 12.48046875 C-3.10949219 11.39378906 -2.84007812 10.30710938 -2.5625 9.1875 C-2.29566406 8.10855469 -2.02882813 7.02960938 -1.75390625 5.91796875 C-1.23922588 3.9259157 -0.65062825 1.95188476 0 0 Z " fill="#FEEED3" transform="translate(320,121)"/>
<path d="M0 0 C3.4375 1.3125 3.4375 1.3125 7 3 C7.96070434 5.88211302 8.10581883 7.69850044 8.0625 10.6875 C8.05347656 11.49574219 8.04445313 12.30398437 8.03515625 13.13671875 C8.02355469 13.75160156 8.01195312 14.36648437 8 15 C7.34 14.01 6.68 13.02 6 12 C5.34 13.65 4.68 15.3 4 17 C3.34 17 2.68 17 2 17 C1.67 16.34 1.34 15.68 1 15 C0.34 15 -0.32 15 -1 15 C-1.41659944 13.06685873 -1.80764837 11.12819653 -2.1875 9.1875 C-2.40792969 8.10855469 -2.62835938 7.02960938 -2.85546875 5.91796875 C-3 3 -3 3 -1.55078125 1.11328125 C-1.03902344 0.74589844 -0.52726562 0.37851563 0 0 Z " fill="#76363A" transform="translate(396,170)"/>
<path d="M0 0 C0.66 0.33 1.32 0.66 2 1 C2 1.99 2 2.98 2 4 C2.87269531 3.92523438 3.74539063 3.85046875 4.64453125 3.7734375 C8.72504441 4.04895527 10.43140192 5.19995624 13.6875 7.625 C14.61949219 8.29789063 15.55148437 8.97078125 16.51171875 9.6640625 C19.26993624 12.25340954 20.60243238 14.50132733 22 18 C21.6875 20.375 21.6875 20.375 21 22 C17.56049636 21.38801624 15.48435515 20.07941153 12.75 17.9375 C12.04359375 17.38964844 11.3371875 16.84179688 10.609375 16.27734375 C10.07828125 15.85582031 9.5471875 15.43429688 9 15 C10.8125 14.375 10.8125 14.375 13 14 C16 16 16 16 17 18 C17.99 18.33 18.98 18.66 20 19 C17.75754701 14.51509401 15.43643697 12.33921222 11 10 C7.69344853 9.12517248 4.38101719 8.50782076 1 8 C1 7.34 1 6.68 1 6 C0.01 6 -0.98 6 -2 6 C-1.34 4.02 -0.68 2.04 0 0 Z " fill="#F6C271" transform="translate(384,144)"/>
<path d="M0 0 C0.66 0.33 1.32 0.66 2 1 C1.34 2.65 0.68 4.3 0 6 C0.99 6.33 1.98 6.66 3 7 C3 7.66 3 8.32 3 9 C3.639375 9.12375 4.27875 9.2475 4.9375 9.375 C5.618125 9.58125 6.29875 9.7875 7 10 C7.495 10.99 7.495 10.99 8 12 C7.154375 11.649375 6.30875 11.29875 5.4375 10.9375 C1.00964576 9.72990339 -2.84987609 9.92493804 -7 12 C-7.65555119 14.52733235 -7.65555119 14.52733235 -8 17 C-10 14 -10 14 -10 12 C-12.20826378 11.97277483 -14.41662638 11.95350271 -16.625 11.9375 C-17.85476563 11.92589844 -19.08453125 11.91429687 -20.3515625 11.90234375 C-23.67723791 11.99136076 -26.74047588 12.36313913 -30 13 C-28.98828125 11 -28.98828125 11 -27 9 C-23.60101543 8.76277534 -20.45294713 8.90669514 -17.06835938 9.15625 C-11.75753582 9.39471542 -9.09420444 8.3329102 -5 5 C-3.29671681 3.3707726 -1.61838719 1.71358643 0 0 Z " fill="#FDEFD1" transform="translate(373,121)"/>
<path d="M0 0 C-0.75 1.9375 -0.75 1.9375 -2 4 C-3.8125 4.5625 -3.8125 4.5625 -6 5 C-6.825 5.495 -7.65 5.99 -8.5 6.5 C-10.75552142 7.85331285 -12.4427253 8.52643061 -15 9 C-15 9.66 -15 10.32 -15 11 C-15.99 11 -16.98 11 -18 11 C-18.33 11.66 -18.66 12.32 -19 13 C-19.99 13 -20.98 13 -22 13 C-26.26612338 17.01517495 -26.62134678 20.41486505 -27 26 C-27.33 26 -27.66 26 -28 26 C-28.53479529 20.09348316 -28.72300964 15.25604292 -24.8125 10.5234375 C-21.06156613 7.37071291 -16.49327572 5.82499994 -12 4 C-10.51309644 3.24419852 -9.03286246 2.47499749 -7.5625 1.6875 C-4 0 -4 0 0 0 Z " fill="#F6D594" transform="translate(372,96)"/>
<path d="M0 0 C4.39941328 -0.43994133 6.56794445 -0.25137777 10.4375 2 C13.08108572 5.09492963 13.36828701 5.53308727 13.375 9.3125 C13.25125 10.529375 13.1275 11.74625 13 13 C11.35 13 9.7 13 8 13 C7.34 11.02 6.68 9.04 6 7 C3.69 7 1.38 7 -1 7 C-1.33 6.34 -1.66 5.68 -2 5 C-1.0625 2.375 -1.0625 2.375 0 0 Z " fill="#F7E6DA" transform="translate(381,170)"/>
<path d="M0 0 C-1.7129018 1.7129018 -4.02072817 1.5369391 -6.32128906 1.90063477 C-13.80183461 3.10017092 -19.60650484 4.78863253 -26 9 C-27.06734375 9.41185547 -27.06734375 9.41185547 -28.15625 9.83203125 C-30.2357543 10.88139044 -30.2357543 10.88139044 -30.828125 13.3828125 C-30.96734375 14.28773438 -31.1065625 15.19265625 -31.25 16.125 C-31.39953125 17.03507812 -31.5490625 17.94515625 -31.703125 18.8828125 C-31.80109375 19.58148438 -31.8990625 20.28015625 -32 21 C-32.66 21 -33.32 21 -34 21 C-34 25.62 -34 30.24 -34 35 C-36 34 -36 34 -37 31 C-37.595687 24.20916815 -36.20007678 19.02490026 -33 13 C-30.625 10.1875 -30.625 10.1875 -28 8 C-27.13375 7.13375 -26.2675 6.2675 -25.375 5.375 C-19.60310343 0.63220127 -7.20902048 -2.59524737 0 0 Z " fill="#E3A068" transform="translate(308,143)"/>
<path d="M0 0 C2.69197641 1.41940575 4.41262596 2.54332748 6.625 4.5 C9.34559567 7.2359036 9.34559567 7.2359036 13.4375 6.8125 C13.4375 7.4725 13.4375 8.1325 13.4375 8.8125 C12.4475 9.1425 11.4575 9.4725 10.4375 9.8125 C10.1075 10.8025 9.7775 11.7925 9.4375 12.8125 C9.00179688 12.41417969 8.56609375 12.01585937 8.1171875 11.60546875 C2.1869403 6.32985923 -2.59461146 3.57090191 -10.609375 3.12109375 C-12.5625 2.8125 -12.5625 2.8125 -14.5625 0.8125 C-9.78316925 -2.24627168 -5.22029158 -1.74009719 0 0 Z " fill="#F7E6D0" transform="translate(392.5625,158.1875)"/>
<path d="M0 0 C0.66 0.33 1.32 0.66 2 1 C1.86208486 6.51660557 -0.50929113 9.23497921 -4.015625 13.16796875 C-9.60679874 18.32989884 -14.24652501 18.5811628 -21.66796875 18.41796875 C-26.4601969 17.81683345 -28.00607192 16.7424101 -31 13 C-32.375 10.1875 -32.375 10.1875 -33 8 C-32.31164062 8.61488281 -32.31164062 8.61488281 -31.609375 9.2421875 C-30.99578125 9.78101563 -30.3821875 10.31984375 -29.75 10.875 C-29.14671875 11.40867188 -28.5434375 11.94234375 -27.921875 12.4921875 C-24.06498483 15.51812166 -21.12891061 16.2412226 -16.1953125 16.4609375 C-11.49420886 15.47387304 -8.53701947 12.69327597 -5.6640625 8.984375 C-4.65472656 7.38335937 -4.65472656 7.38335937 -3.625 5.75 C-2.59246094 4.13351563 -2.59246094 4.13351563 -1.5390625 2.484375 C-0.77722656 1.25460938 -0.77722656 1.25460938 0 0 Z " fill="#F0A75A" transform="translate(366,151)"/>
<path d="M0 0 C1.25127906 3.54667178 0.72285053 5.72253438 -0.4375 9.25 C-0.86869141 10.58804688 -0.86869141 10.58804688 -1.30859375 11.953125 C-1.53675781 12.62859375 -1.76492188 13.3040625 -2 14 C-5.70920229 13.91870118 -9.41681099 13.80589399 -13.125 13.6875 C-14.17171875 13.66494141 -15.2184375 13.64238281 -16.296875 13.61914062 C-25.17904821 13.30995105 -30.52845264 11.02004405 -37 5 C-37.33 4.01 -37.66 3.02 -38 2 C-37.34 2 -36.68 2 -36 2 C-36 2.66 -36 3.32 -36 4 C-34.7934375 4.433125 -34.7934375 4.433125 -33.5625 4.875 C-31 6 -31 6 -30 8 C-23.9754577 10.80195492 -19.08253373 11.39655441 -12.5 11.1875 C-11.67757813 11.17396484 -10.85515625 11.16042969 -10.0078125 11.14648438 C-8.00491779 11.11155016 -6.00236644 11.05776057 -4 11 C-3.79503906 10.28972656 -3.59007812 9.57945312 -3.37890625 8.84765625 C-3.10949219 7.92855469 -2.84007812 7.00945312 -2.5625 6.0625 C-2.29566406 5.14597656 -2.02882813 4.22945312 -1.75390625 3.28515625 C-1 1 -1 1 0 0 Z " fill="#DD8148" transform="translate(363,166)"/>
<path d="M0 0 C5.8776294 0.07475522 9.5673357 0.9423357 13.8125 5.1875 C5.8925 5.5175 -2.0275 5.8475 -10.1875 6.1875 C-10.1875 5.5275 -10.1875 4.8675 -10.1875 4.1875 C-8.55118108 3.13857762 -6.88264137 2.13843297 -5.1875 1.1875 C-3.6358498 -0.3641502 -2.15020239 0.0180084 0 0 Z " fill="#F7AF52" transform="translate(338.1875,180.8125)"/>
<path d="M0 0 C1.32 0.33 2.64 0.66 4 1 C3.67 2.32 3.34 3.64 3 5 C2.34 4.67 1.68 4.34 1 4 C-1.16658535 5.49479421 -1.16658535 5.49479421 -3 8 C-3.21065038 10.05594768 -3.1300927 11.94331602 -2.9453125 14 C-3.01507885 16.55145492 -3.53702971 17.9081309 -5 20 C-7.0234375 20.86328125 -7.0234375 20.86328125 -9.375 21.3125 C-10.14585937 21.47363281 -10.91671875 21.63476562 -11.7109375 21.80078125 C-14.0798979 22.00695357 -15.74765803 21.71478432 -18 21 C-16.21190303 19.82786955 -14.41940875 18.66244474 -12.625 17.5 C-11.62726563 16.8503125 -10.62953125 16.200625 -9.6015625 15.53125 C-7 14 -7 14 -5 14 C-5.103125 12.80375 -5.20625 11.6075 -5.3125 10.375 C-5.34355513 6.88440321 -4.7614318 5.16275632 -2.5 2.5 C-1.675 1.675 -0.85 0.85 0 0 Z " fill="#F4BB66" transform="translate(350,108)"/>
<path d="M0 0 C0.66 0.33 1.32 0.66 2 1 C-0.81777472 8.467103 -0.81777472 8.467103 -5 11 C-7.578125 11.73046875 -7.578125 11.73046875 -10.25 12.1875 C-11.14203125 12.34605469 -12.0340625 12.50460938 -12.953125 12.66796875 C-13.62859375 12.77753906 -14.3040625 12.88710937 -15 13 C-15 12.34 -15 11.68 -15 11 C-17.31 11 -19.62 11 -22 11 C-22 10.01 -22 9.02 -22 8 C-16.06 8 -10.12 8 -4 8 C-3.34 5.69 -2.68 3.38 -2 1 C-1.34 0.67 -0.68 0.34 0 0 Z " fill="#F3E5D4" transform="translate(310,195)"/>
<path d="M0 0 C0.33 0.99 0.66 1.98 1 3 C-2.38115385 7.18195345 -4.48767455 9.33843522 -9.9375 9.9375 C-14.09055571 10.12598967 -17.92648687 9.7969917 -22 9 C-22 8.34 -22 7.68 -22 7 C-24.475 6.01 -24.475 6.01 -27 5 C-26.67 4.01 -26.34 3.02 -26 2 C-24.74896484 2.72703125 -24.74896484 2.72703125 -23.47265625 3.46875 C-19.54425647 5.20095778 -16.71542253 5.46546581 -12.4375 5.5 C-11.15746094 5.5309375 -9.87742187 5.561875 -8.55859375 5.59375 C-4.20144147 4.86676082 -2.76237789 3.35090754 0 0 Z " fill="#F3E5D3" transform="translate(399,197)"/>
<path d="M0 0 C-0.85472457 5.15322219 -4.17886177 6.9264661 -8.1875 9.875 C-8.84814453 10.39835937 -9.50878906 10.92171875 -10.18945312 11.4609375 C-12.09820058 12.87789514 -13.81133043 14.06920605 -16 15 C-19.48828125 14.3203125 -19.48828125 14.3203125 -22 13 C-21.67 12.01 -21.34 11.02 -21 10 C-21 10.66 -21 11.32 -21 12 C-15.26686444 8.68699953 -9.83195485 5.28697785 -4.69140625 1.1015625 C-3 0 -3 0 0 0 Z " fill="#E8C384" transform="translate(380,105)"/>
<path d="M0 0 C0.67154933 1.28913487 1.33708859 2.58140204 2 3.875 C2.37125 4.59429687 2.7425 5.31359375 3.125 6.0546875 C4 8 4 8 4 10 C3.34 10 2.68 10 2 10 C2 9.34 2 8.68 2 8 C1.34 8 0.68 8 0 8 C-0.66 7.01 -1.32 6.02 -2 5 C-3.65 5.33 -5.3 5.66 -7 6 C-7.33448259 8.832168 -7.33448259 8.832168 -7 12 C-5.68671343 13.35308313 -4.35500919 14.68870078 -3 16 C-3.25 18.25 -3.25 18.25 -4 20 C-7.86478185 15.60214479 -11 11.02718405 -11 5 C-9.54462432 4.16151196 -8.08559627 3.32936066 -6.625 2.5 C-5.81289063 2.0359375 -5.00078125 1.571875 -4.1640625 1.09375 C-2 0 -2 0 0 0 Z " fill="#E49C67" transform="translate(329,148)"/>
<path d="M0 0 C-0.9645741 3.85829642 -1.91115329 4.93849074 -5.25 7.25 C-8.43745815 8.90721095 -11.40565496 9.64933219 -15 10 C-15 9.01 -15 8.02 -15 7 C-17.64 7 -20.28 7 -23 7 C-23 6.67 -23 6.34 -23 6 C-22.030625 5.896875 -21.06125 5.79375 -20.0625 5.6875 C-14.47989539 4.89483809 -9.26983074 2.91759115 -4.0625 0.8125 C-2 0 -2 0 0 0 Z " fill="#F89A4A" transform="translate(323,138)"/>
<path d="M0 0 C0.51949219 0.32613281 1.03898437 0.65226563 1.57421875 0.98828125 C4.68099991 2.93504431 7.78758956 4.87345761 10.9375 6.75 C13 8 13 8 14 9 C15.85287502 9.07226502 17.70833878 9.0838122 19.5625 9.0625 C20.57441406 9.05347656 21.58632813 9.04445312 22.62890625 9.03515625 C23.41136719 9.02355469 24.19382812 9.01195312 25 9 C25 10.32 25 11.64 25 13 C24.34 13 23.68 13 23 13 C23 12.34 23 11.68 23 11 C21.35 11 19.7 11 18 11 C18 11.66 18 12.32 18 13 C15.69 13 13.38 13 11 13 C11 12.34 11 11.68 11 11 C10.34 11 9.68 11 9 11 C8.67 9.68 8.34 8.36 8 7 C5.69 7 3.38 7 1 7 C0.67 4.69 0.34 2.38 0 0 Z " fill="#7C2D23" transform="translate(276,180)"/>
<path d="M0 0 C-1.10830253 5.44915409 -2.10014426 8.84015388 -6 13 C-6 11.35 -6 9.7 -6 8 C-5.34 8 -4.68 8 -4 8 C-3.67 6.35 -3.34 4.7 -3 3 C-6.22017171 3.6360833 -9.12605596 4.38701861 -12 6 C-13.45404496 8.76105166 -13.63703924 10.83705627 -14 14 C-10.535 13.505 -10.535 13.505 -7 13 C-8.125 14.5 -8.125 14.5 -10 16 C-13.1875 16.1875 -13.1875 16.1875 -16 16 C-15.05302372 6.68806656 -15.05302372 6.68806656 -13 3 C-10.46875 1.85546875 -10.46875 1.85546875 -7.5 1.1875 C-6.5203125 0.95417969 -5.540625 0.72085938 -4.53125 0.48046875 C-2 0 -2 0 0 0 Z " fill="#CE7858" transform="translate(309,157)"/>
<path d="M0 0 C-2.63262304 5.87277448 -6.44288812 8.06988646 -12 11 C-12.66 11 -13.32 11 -14 11 C-13.34 13.64 -12.68 16.28 -12 19 C-12.66 19 -13.32 19 -14 19 C-14.33 16.36 -14.66 13.72 -15 11 C-16.98 11.33 -18.96 11.66 -21 12 C-17.80928952 9.48587391 -14.45888244 7.45782227 -10.9375 5.4375 C-1.47741935 0 -1.47741935 0 0 0 Z " fill="#FCE9CC" transform="translate(332,142)"/>
<path d="M0 0 C0.33 0 0.66 0 1 0 C1.02687279 1.81242052 1.04633715 3.62495233 1.0625 5.4375 C1.07410156 6.44683594 1.08570313 7.45617187 1.09765625 8.49609375 C1 11 1 11 0 12 C-1.47354348 12.09304018 -2.95150591 12.11746265 -4.42797852 12.11352539 C-5.36887833 12.11344986 -6.30977814 12.11337433 -7.27919006 12.11329651 C-8.30209641 12.10813522 -9.32500275 12.10297394 -10.37890625 12.09765625 C-11.42070541 12.0962413 -12.46250458 12.09482635 -13.53587341 12.09336853 C-16.87811094 12.0877508 -20.22028257 12.0751953 -23.5625 12.0625 C-25.82226466 12.05748728 -28.08203037 12.05292398 -30.34179688 12.04882812 C-35.89455391 12.03777561 -41.44727225 12.02102024 -47 12 C-47 11.67 -47 11.34 -47 11 C-45.77893555 10.98018066 -44.55787109 10.96036133 -43.29980469 10.93994141 C-38.76720646 10.86383877 -34.2349273 10.77512839 -29.70263672 10.68261719 C-27.7414378 10.64434673 -25.78016916 10.60949046 -23.81884766 10.578125 C-20.99877003 10.5324326 -18.17917162 10.474445 -15.359375 10.4140625 C-14.48319519 10.40251129 -13.60701538 10.39096008 -12.70428467 10.37905884 C-11.47346161 10.3492543 -11.47346161 10.3492543 -10.21777344 10.31884766 C-9.49829529 10.30552399 -8.77881714 10.29220032 -8.03753662 10.2784729 C-5.65972005 9.95349348 -4.03842124 9.25584477 -2 8 C-1.09390008 6.06018382 -1.09390008 6.06018382 -0.75 3.875 C-0.5025 2.59625 -0.255 1.3175 0 0 Z " fill="#FACD90" transform="translate(361,176)"/>
<path d="M0 0 C2.6875 0.875 2.6875 0.875 5 2 C4.67 3.65 4.34 5.3 4 7 C3.67 6.34 3.34 5.68 3 5 C3.33 4.34 3.66 3.68 4 3 C-1.3749445 5.51306402 -5.74835004 8.72875948 -10.4140625 12.35546875 C-13 14 -13 14 -17 14 C-17 13.34 -17 12.68 -17 12 C-14.76127762 10.24924221 -12.52343246 8.61098791 -10.1875 7 C-9.54490234 6.54882812 -8.90230469 6.09765625 -8.24023438 5.6328125 C-5.51354753 3.72271892 -2.77019633 1.84679755 0 0 Z " fill="#FEF0C9" transform="translate(379,108)"/>
<path d="M0 0 C1.485 0.99 1.485 0.99 3 2 C2.41196203 5.02419525 1.77321882 8.01758453 1 11 C2.65 10.67 4.3 10.34 6 10 C6 8.68 6 7.36 6 6 C6.66 6 7.32 6 8 6 C8.66 8.31 9.32 10.62 10 13 C7 13 7 13 5 12 C3.515 14.475 3.515 14.475 2 17 C-1.0689241 13.9310759 -1.063411 11.13325076 -1.125 6.9375 C-1 3 -1 3 0 0 Z " fill="#6F3836" transform="translate(366,173)"/>
<path d="M0 0 C0.95006857 2.8502057 0.97268258 4.86049867 0.875 7.9375 C0.81777517 11.80017585 1.75456984 13.80458016 4 17 C6.5140166 21.65093071 5.85720664 24.94248083 5 30 C4.01 29.34 3.02 28.68 2 28 C2.33 25.36 2.66 22.72 3 20 C2.01 19.67 1.02 19.34 0 19 C0 17.02 0 15.04 0 13 C-0.66 12.67 -1.32 12.34 -2 12 C-2.05422947 10.5629191 -2.09289723 9.12524538 -2.125 7.6875 C-2.14820313 6.88699219 -2.17140625 6.08648437 -2.1953125 5.26171875 C-2 3 -2 3 0 0 Z " fill="#F7E7D8" transform="translate(271,162)"/>
<path d="M0 0 C2.5 0.25 2.5 0.25 4.5 2.25 C4.75 4.75 4.75 4.75 4.5 7.25 C2.5 9.25 2.5 9.25 0 9.5 C-2.5 9.25 -2.5 9.25 -4.5 7.25 C-4.75 4.75 -4.75 4.75 -4.5 2.25 C-2.5 0.25 -2.5 0.25 0 0 Z " fill="#6A3335" transform="translate(384.5,175.75)"/>
<path d="M0 0 C-0.37926876 2.61525625 -0.7696606 3.77967536 -2.70703125 5.6328125 C-3.40183594 6.12523438 -4.09664063 6.61765625 -4.8125 7.125 C-5.49957031 7.62257813 -6.18664062 8.12015625 -6.89453125 8.6328125 C-11.52158714 11.63739424 -14.39054637 12.21574822 -20 12 C-17.02527752 9.74307599 -13.99880769 7.57533629 -10.9375 5.4375 C-10.08027344 4.83808594 -9.22304688 4.23867187 -8.33984375 3.62109375 C-3.11325301 0 -3.11325301 0 0 0 Z " fill="#DEB36F" transform="translate(383,111)"/>
<path d="M0 0 C0.66 0.33 1.32 0.66 2 1 C2 1.66 2 2.32 2 3 C2.99 3.33 3.98 3.66 5 4 C5.103125 4.639375 5.20625 5.27875 5.3125 5.9375 C5.539375 6.618125 5.76625 7.29875 6 8 C8.75763432 9.14228658 8.75763432 9.14228658 12 10 C17.81707317 12.63414634 17.81707317 12.63414634 19 15 C14.15340923 14.40895235 10.39251833 13.02055843 6 11 C6 10.34 6 9.68 6 9 C3.525 8.01 3.525 8.01 1 7 C1 6.34 1 5.68 1 5 C0.34 4.67 -0.32 4.34 -1 4 C-0.67 2.68 -0.34 1.36 0 0 Z " fill="#EB6F36" transform="translate(326,163)"/>
<path d="M0 0 C0.66 0.99 1.32 1.98 2 3 C-0.24469685 4.65351332 -2.49520825 6.29785481 -4.75 7.9375 C-5.70132812 8.64036133 -5.70132812 8.64036133 -6.671875 9.35742188 C-7.290625 9.80537109 -7.909375 10.25332031 -8.546875 10.71484375 C-9.11245117 11.12855225 -9.67802734 11.54226074 -10.26074219 11.96850586 C-12.15529657 13.09210107 -13.84958629 13.5695053 -16 14 C-14.54619541 10.46266797 -12.72555217 8.71986861 -9.6875 6.4375 C-8.88828125 5.83679688 -8.0890625 5.23609375 -7.265625 4.6171875 C-4.91377799 2.93845532 -2.53450191 1.38988814 0 0 Z " fill="#FDF2CC" transform="translate(375,103)"/>
<path d="M0 0 C1.65 0 3.3 0 5 0 C5.66 1.65 6.32 3.3 7 5 C6.01 4.67 5.02 4.34 4 4 C3.67 3.34 3.34 2.68 3 2 C2.67 8.93 2.34 15.86 2 23 C-1.3 23 -4.6 23 -8 23 C-8 22.67 -8 22.34 -8 22 C-6.865625 21.71125 -5.73125 21.4225 -4.5625 21.125 C-3.386875 20.75375 -2.21125 20.3825 -1 20 C0.1482685 17.703463 0.11561175 16.41686833 0.09765625 13.8671875 C0.09443359 13.06152344 0.09121094 12.25585938 0.08789062 11.42578125 C0.07951172 10.58402344 0.07113281 9.74226563 0.0625 8.875 C0.05798828 8.02550781 0.05347656 7.17601562 0.04882812 6.30078125 C0.03702874 4.20049091 0.01909306 2.1002367 0 0 Z " fill="#6C3D3D" transform="translate(328,252)"/>
<path d="M0 0 C2.51033417 1.1336993 2.96441202 2.36118938 3.9375 4.875 C2.6175 5.205 1.2975 5.535 -0.0625 5.875 C-0.0625 7.525 -0.0625 9.175 -0.0625 10.875 C-3.9375 9 -3.9375 9 -5.0625 7.875 C-5.3125 4.9375 -5.3125 4.9375 -5.0625 1.875 C-2.0625 -0.125 -2.0625 -0.125 0 0 Z " fill="#F8873C" transform="translate(326.0625,152.125)"/>
<path d="M0 0 C15.51 0 31.02 0 47 0 C47 0.33 47 0.66 47 1 C32.15 1.33 17.3 1.66 2 2 C1.34 3.65 0.68 5.3 0 7 C-1 5 -1 5 0 0 Z " fill="#FBE1BE" transform="translate(313,188)"/>
<path d="M0 0 C0.75410156 0.00322266 1.50820313 0.00644531 2.28515625 0.00976562 C3.06246094 0.01814453 3.83976562 0.02652344 4.640625 0.03515625 C5.43339844 0.03966797 6.22617187 0.04417969 7.04296875 0.04882812 C8.99222008 0.0605706 10.94143238 0.07850479 12.890625 0.09765625 C12.890625 0.75765625 12.890625 1.41765625 12.890625 2.09765625 C11.91222656 2.03964844 10.93382812 1.98164063 9.92578125 1.921875 C0.70813805 1.60465031 -5.62476153 2.30024021 -12.76171875 8.54296875 C-13.93029278 9.67593527 -15.03019915 10.8792319 -16.109375 12.09765625 C-16.109375 10.77765625 -16.109375 9.45765625 -16.109375 8.09765625 C-15.449375 8.09765625 -14.789375 8.09765625 -14.109375 8.09765625 C-13.779375 6.77765625 -13.449375 5.45765625 -13.109375 4.09765625 C-11.789375 4.09765625 -10.469375 4.09765625 -9.109375 4.09765625 C-8.779375 3.10765625 -8.449375 2.11765625 -8.109375 1.09765625 C-5.41165718 0.07962888 -2.8613733 -0.02167707 0 0 Z " fill="#E5A660" transform="translate(380.109375,155.90234375)"/>
<path d="M0 0 C0.144375 0.598125 0.28875 1.19625 0.4375 1.8125 C0.8872439 3.56150404 1.42892341 5.28677023 2 7 C1.0625 10.1875 1.0625 10.1875 0 13 C-1.65 12.67 -3.3 12.34 -5 12 C-5.35338623 9.03155565 -5.5417682 6.84401782 -3.88671875 4.265625 C-2.64496832 2.79651181 -1.32662082 1.39295186 0 0 Z " fill="#F2D7CA" transform="translate(379,171)"/>
<path d="M0 0 C5.28 0.33 10.56 0.66 16 1 C16 2.32 16 3.64 16 5 C10.87416389 5.10251672 6.05002222 5.03590199 1 4 C0.67 2.68 0.34 1.36 0 0 Z " fill="#F07839" transform="translate(284,181)"/>
<path d="M0 0 C0.33 0.99 0.66 1.98 1 3 C-8 12 -8 12 -10.72265625 12.09765625 C-12.37587891 12.08025391 -12.37587891 12.08025391 -14.0625 12.0625 C-15.16722656 12.05347656 -16.27195312 12.04445312 -17.41015625 12.03515625 C-18.69212891 12.01775391 -18.69212891 12.01775391 -20 12 C-19.67 11.34 -19.34 10.68 -19 10 C-17.13849694 9.54490067 -15.25939825 9.1608565 -13.375 8.8125 C-7.15533889 7.38747025 -3.87627994 4.98183865 0 0 Z " fill="#E4C1B2" transform="translate(312,190)"/>
<path d="M0 0 C1.134375 0.020625 2.26875 0.04125 3.4375 0.0625 C3.4375 0.3925 3.4375 0.7225 3.4375 1.0625 C1.7875 1.0625 0.1375 1.0625 -1.5625 1.0625 C-1.47871094 1.94292969 -1.39492188 2.82335937 -1.30859375 3.73046875 C-1.20675781 4.89191406 -1.10492188 6.05335938 -1 7.25 C-0.89558594 8.39855469 -0.79117187 9.54710937 -0.68359375 10.73046875 C-0.57390015 13.74881199 -0.82247611 16.15173936 -1.5625 19.0625 C-2.2225 19.0625 -2.8825 19.0625 -3.5625 19.0625 C-3.7563211 16.08361874 -3.94285102 13.10459754 -4.125 10.125 C-4.18107422 9.27486328 -4.23714844 8.42472656 -4.29492188 7.54882812 C-4.36743164 6.33549805 -4.36743164 6.33549805 -4.44140625 5.09765625 C-4.4885376 4.3487915 -4.53566895 3.59992676 -4.58422852 2.82836914 C-4.54276877 -0.54105002 -3.40608102 0.05975581 0 0 Z " fill="#F1C178" transform="translate(369.5625,131.9375)"/>
<path d="M0 0 C0.33 0 0.66 0 1 0 C1 1.98 1 3.96 1 6 C2.98 6 4.96 6 7 6 C7.33 4.68 7.66 3.36 8 2 C8.99 2 9.98 2 11 2 C10.8046875 3.859375 10.8046875 3.859375 10 6 C7.8203125 7.265625 7.8203125 7.265625 5.125 8.25 C4.24070312 8.58515625 3.35640625 8.9203125 2.4453125 9.265625 C0 10 0 10 -3 10 C-2.49287967 6.28111761 -1.88391785 3.26545761 0 0 Z " fill="#DC844F" transform="translate(306,130)"/>
<path d="M0 0 C0.33 0 0.66 0 1 0 C0.93970033 1.91752953 0.85083293 3.83417426 0.75 5.75 C0.68039062 7.35101563 0.68039062 7.35101563 0.609375 8.984375 C-0.12712222 12.62909201 -0.94711995 13.89598807 -4 16 C-6.796875 16.171875 -6.796875 16.171875 -9.75 15.75 C-10.73484375 15.62109375 -11.7196875 15.4921875 -12.734375 15.359375 C-13.85585938 15.18148437 -13.85585938 15.18148437 -15 15 C-15 14.67 -15 14.34 -15 14 C-13.7625 13.7525 -12.525 13.505 -11.25 13.25 C-7.4183292 12.26336166 -5.35823929 11.31900344 -3 8 C-1.83277346 5.36237121 -0.91456343 2.74369028 0 0 Z " fill="#FCE5D1" transform="translate(308,159)"/>
<path d="M0 0 C1.98 0 3.96 0 6 0 C6 0.66 6 1.32 6 2 C6.66 2.33 7.32 2.66 8 3 C8 3.99 8 4.98 8 6 C14.435 5.505 14.435 5.505 21 5 C17.15981638 7.88013771 15.81604415 8.59147249 11.16796875 8.42578125 C7.25927849 7.65812857 3.96459674 5.62451831 1 3 C0.67 2.01 0.34 1.02 0 0 Z " fill="#FCE8C8" transform="translate(335,160)"/>
<path d="M0 0 C-3.2316194 3.87794328 -6.10746749 4.95160018 -11 6 C-12.32 6 -13.64 6 -15 6 C-15 5.34 -15 4.68 -15 4 C-16.32 3.67 -17.64 3.34 -19 3 C-16.77228658 2.49356447 -14.54275924 1.9951038 -12.3125 1.5 C-10.45044922 1.08234375 -10.45044922 1.08234375 -8.55078125 0.65625 C-5.57601782 0.10645874 -3.00631398 -0.13795705 0 0 Z " fill="#FCE8D1" transform="translate(311,154)"/>
<path d="M0 0 C0.66 0.33 1.32 0.66 2 1 C1.67 1.33 1.34 1.66 1 2 C0.63239269 4.32817964 0.29758419 6.6618385 0 9 C-0.66 9 -1.32 9 -2 9 C-2 13.62 -2 18.24 -2 23 C-4 22 -4 22 -5 19 C-5.59961017 12.16444411 -3.98374572 7.14723517 -1 1 C-0.67 0.67 -0.34 0.34 0 0 Z " fill="#DF8E5F" transform="translate(276,155)"/>
<path d="M0 0 C1.93681161 -0.08107583 3.8745934 -0.13922475 5.8125 -0.1875 C6.89144531 -0.22230469 7.97039062 -0.25710937 9.08203125 -0.29296875 C12 0 12 0 13.88671875 1.51171875 C14.25410156 2.00285156 14.62148438 2.49398437 15 3 C14.154375 2.79375 13.30875 2.5875 12.4375 2.375 C8.46439054 1.94156988 5.75375382 2.7237237 2 4 C1.67 5.65 1.34 7.3 1 9 C0.67 9 0.34 9 0 9 C0 6.03 0 3.06 0 0 Z " fill="#663535" transform="translate(314,217)"/>
<path d="M0 0 C0.45890625 0.40992188 0.9178125 0.81984375 1.390625 1.2421875 C2.00421875 1.78101563 2.6178125 2.31984375 3.25 2.875 C3.85328125 3.40867188 4.4565625 3.94234375 5.078125 4.4921875 C8.97110419 7.5464354 11.94068631 8.37294466 16.9609375 8.26953125 C20.01702658 7.86556545 22.38404815 6.56957111 25 5 C24.625 6.9375 24.625 6.9375 24 9 C19.32773721 11.3361314 13.07058867 10.5128209 8 10 C4.1870911 8.35908742 2.44519868 5.91063366 0.625 2.1875 C0.41875 1.465625 0.2125 0.74375 0 0 Z " fill="#E59D5E" transform="translate(333,159)"/>
<path d="M0 0 C3 3 3 3 4 7 C8.455 7.99 8.455 7.99 13 9 C13 9.66 13 10.32 13 11 C13.99 11.33 14.98 11.66 16 12 C16 12.99 16 13.98 16 15 C13.36278505 14.04767238 11.21996549 13.17184804 9 11.4375 C6.67537209 9.76667369 4.80890941 9.39012631 2 9 C1.34 6.03 0.68 3.06 0 0 Z " fill="#FDF0CB" transform="translate(385,139)"/>
<path d="M0 0 C0.66 0.33 1.32 0.66 2 1 C0.20966193 2.31431172 -1.58231203 3.6263953 -3.375 4.9375 C-4.37273437 5.66839844 -5.37046875 6.39929688 -6.3984375 7.15234375 C-9 9 -9 9 -11 10 C-11 10.66 -11 11.32 -11 12 C-8.03 12.495 -8.03 12.495 -5 13 C-5.99 14.485 -5.99 14.485 -7 16 C-8.98 15.34 -10.96 14.68 -13 14 C-13 12.02 -13 10.04 -13 8 C-12.01 8 -11.02 8 -10 8 C-10.33 7.01 -10.66 6.02 -11 5 C-9.9275 4.731875 -8.855 4.46375 -7.75 4.1875 C-4.43491072 3.13772173 -2.56122354 2.25387672 0 0 Z " fill="#E2BC7A" transform="translate(367,99)"/>
<path d="M0 0 C0 0.99 0 1.98 0 3 C-5.33067435 7.64167562 -12.30998784 11.79872661 -19.4375 12.1875 C-20.283125 12.125625 -21.12875 12.06375 -22 12 C-19.90722322 10.94881166 -17.81059903 9.90819851 -15.703125 8.88671875 C-10.25116787 6.22151041 -5.07327344 3.33022139 0 0 Z " fill="#EAAB6D" transform="translate(330,130)"/>
<path d="M0 0 C0.66 0.33 1.32 0.66 2 1 C2 1.66 2 2.32 2 3 C1.01 3 0.02 3 -1 3 C-1.33 3.66 -1.66 4.32 -2 5 C-2.99 5 -3.98 5 -5 5 C-9.26612338 9.01517495 -9.62134678 12.41486505 -10 18 C-10.33 18 -10.66 18 -11 18 C-11.77961783 9.07770701 -11.77961783 9.07770701 -8.875 5.0625 C-5.98661176 2.99039539 -3.30280942 1.32112377 0 0 Z " fill="#F3CC85" transform="translate(355,104)"/>
<path d="M0 0 C0.598125 0.20625 1.19625 0.4125 1.8125 0.625 C1.8125 3.265 1.8125 5.905 1.8125 8.625 C0.1625 8.625 -1.4875 8.625 -3.1875 8.625 C-3.8475 6.315 -4.5075 4.005 -5.1875 1.625 C-2.1875 -0.375 -2.1875 -0.375 0 0 Z " fill="#F9E3D3" transform="translate(392.1875,174.375)"/>
<path d="M0 0 C0.845625 0.474375 1.69125 0.94875 2.5625 1.4375 C8.56143413 4.07603534 15.5396499 3.75888011 22 4 C20 6 20 6 18.1171875 6.23046875 C4.4529148 5.96860987 4.4529148 5.96860987 0 3 C0 2.01 0 1.02 0 0 Z " fill="#EFDCC6" transform="translate(372,199)"/>
<path d="M0 0 C0.66 0 1.32 0 2 0 C2.23509196 4.81938524 1.45184478 8.46298506 0 13 C-2.97 12.505 -2.97 12.505 -6 12 C-6 11.01 -6 10.02 -6 9 C-5.01 8.67 -4.02 8.34 -3 8 C-1.98245132 6.1346755 -1.98245132 6.1346755 -1.3125 3.9375 C-1.06113281 3.20402344 -0.80976563 2.47054687 -0.55078125 1.71484375 C-0.36902344 1.14894531 -0.18726563 0.58304688 0 0 Z " fill="#F3813A" transform="translate(360,165)"/>
<path d="M0 0 C0.33 0.66 0.66 1.32 1 2 C1.99 2.33 2.98 2.66 4 3 C2.730447 3.64834654 1.45930294 4.29357815 0.1875 4.9375 C-0.52019531 5.29714844 -1.22789062 5.65679687 -1.95703125 6.02734375 C-4 7 -4 7 -7 8 C-7 8.66 -7 9.32 -7 10 C-7.99 9.67 -8.98 9.34 -10 9 C-8.77946141 5.33838422 -7.63217696 4.83729526 -4.4375 2.8125 C-3.61121094 2.28269531 -2.78492188 1.75289063 -1.93359375 1.20703125 C-1.29550781 0.80871094 -0.65742188 0.41039063 0 0 Z " fill="#FDEFC1" transform="translate(365,102)"/>
<path d="M0 0 C1.0219601 3.18184739 0.94954615 5.32243328 0.1875 8.5625 C0.01605469 9.32691406 -0.15539062 10.09132812 -0.33203125 10.87890625 C-1 13 -1 13 -3 16 C-2.34 16.33 -1.68 16.66 -1 17 C-2.98 17.66 -4.96 18.32 -7 19 C-7.66 18.01 -8.32 17.02 -9 16 C-7.35 15.67 -5.7 15.34 -4 15 C-3.79503906 14.16855469 -3.59007812 13.33710938 -3.37890625 12.48046875 C-2.97478516 10.85044922 -2.97478516 10.85044922 -2.5625 9.1875 C-2.29566406 8.10855469 -2.02882813 7.02960938 -1.75390625 5.91796875 C-1.23922588 3.9259157 -0.65062825 1.95188476 0 0 Z " fill="#FAE0BD" transform="translate(320,121)"/>
<path d="M0 0 C4.95 0 9.9 0 15 0 C12 3 12 3 9.58984375 3.3984375 C8.71457031 3.39070312 7.83929688 3.38296875 6.9375 3.375 C5.62072266 3.38660156 5.62072266 3.38660156 4.27734375 3.3984375 C3.52582031 3.26695312 2.77429688 3.13546875 2 3 C1.34 2.01 0.68 1.02 0 0 Z " fill="#F5B696" transform="translate(288,187)"/>
<path d="M0 0 C2.19050021 0.09017996 4.378466 0.24666208 6.5625 0.4375 C7.76003906 0.53933594 8.95757812 0.64117187 10.19140625 0.74609375 C11.11824219 0.82988281 12.04507812 0.91367188 13 1 C13 1.66 13 2.32 13 3 C10.64628886 3.1968999 8.2925305 3.38270974 5.9375 3.5625 C3.97103516 3.71912109 3.97103516 3.71912109 1.96484375 3.87890625 C-1.92325897 3.99765619 -5.19110223 3.66866216 -9 3 C-9 2.67 -9 2.34 -9 2 C-6.94921875 1.77213542 -4.8984375 1.54427083 -2.84765625 1.31640625 C-0.98859771 1.18113386 -0.98859771 1.18113386 0 0 Z " fill="#EC9853" transform="translate(315,184)"/>
<path d="M0 0 C2.05078125 0.03255208 4.1015625 0.06510417 6.15234375 0.09765625 C6.15234375 0.42765625 6.15234375 0.75765625 6.15234375 1.09765625 C4.50234375 1.09765625 2.85234375 1.09765625 1.15234375 1.09765625 C0.82234375 2.74765625 0.49234375 4.39765625 0.15234375 6.09765625 C-2.48765625 6.09765625 -5.12765625 6.09765625 -7.84765625 6.09765625 C-7.84765625 5.43765625 -7.84765625 4.77765625 -7.84765625 4.09765625 C-6.21133733 3.04873387 -4.54279762 2.04858922 -2.84765625 1.09765625 C-1.84765625 0.09765625 -1.84765625 0.09765625 0 0 Z " fill="#F3A757" transform="translate(335.84765625,180.90234375)"/>
<path d="M0 0 C0.33 1.32 0.66 2.64 1 4 C-3.18586481 7.18923033 -5.70558305 8.50423019 -11 8 C-8.53410087 3.7934662 -5.43718565 2.7255722 -1 1 C-0.67 0.67 -0.34 0.34 0 0 Z " fill="#F28D3E" transform="translate(329,137)"/>
<path d="M0 0 C0.33 0.66 0.66 1.32 1 2 C2.65 2 4.3 2 6 2 C5.67 3.98 5.34 5.96 5 8 C3.02 8 1.04 8 -1 8 C-0.67 5.36 -0.34 2.72 0 0 Z " fill="#F4813B" transform="translate(308,128)"/>
<path d="M0 0 C4.8 2.46153846 4.8 2.46153846 5.8125 5.1875 C5.874375 5.785625 5.93625 6.38375 6 7 C3.66666667 7 1.33333333 7 -1 7 C-1.33 5.35 -1.66 3.7 -2 2 C-1.34 2 -0.68 2 0 2 C0 1.34 0 0.68 0 0 Z " fill="#75303A" transform="translate(356,217)"/>
<path d="M0 0 C-1.875 3.875 -1.875 3.875 -3 5 C-4.51928038 5.07179964 -6.04167482 5.08392007 -7.5625 5.0625 C-8.38878906 5.05347656 -9.21507812 5.04445312 -10.06640625 5.03515625 C-10.70449219 5.02355469 -11.34257812 5.01195312 -12 5 C-11.67 4.01 -11.34 3.02 -11 2 C-8.90006779 1.25486277 -7.22568901 1 -5 1 C-3 0 -3 0 0 0 Z " fill="#F6DAC5" transform="translate(393,185)"/>
<path d="M0 0 C6.06417949 -0.3235827 10.7506727 -0.49955154 16 3 C16.33 3.66 16.66 4.32 17 5 C14.61435923 4.42415568 12.33317216 3.77772405 10 3 C8.10529184 2.9314505 6.2083166 2.91519628 4.3125 2.9375 C3.31863281 2.94652344 2.32476562 2.95554688 1.30078125 2.96484375 C0.54152344 2.97644531 -0.21773438 2.98804688 -1 3 C-0.67 2.01 -0.34 1.02 0 0 Z " fill="#7E4740" transform="translate(379,161)"/>
<path d="M0 0 C1.32 0.33 2.64 0.66 4 1 C3.9175 1.9075 3.835 2.815 3.75 3.75 C4.05671986 7.73735823 5.23095015 8.32027434 8 11 C7.75 13.25 7.75 13.25 7 15 C3.13521815 10.60214479 0 6.02718405 0 0 Z " fill="#DC8359" transform="translate(318,153)"/>
<path d="M0 0 C0.99 0.33 1.98 0.66 3 1 C2.31164062 1.51046875 2.31164062 1.51046875 1.609375 2.03125 C-3.23771514 5.86004389 -5.55794327 9.33442839 -8 15 C-9.15941038 11.52176885 -8.70820884 9.54104422 -8 6 C-7.01 5.67 -6.02 5.34 -5 5 C-4.67 4.34 -4.34 3.68 -4 3 C-3.01 3 -2.02 3 -1 3 C-0.67 2.01 -0.34 1.02 0 0 Z " fill="#FDEAD0" transform="translate(281,147)"/>
<path d="M0 0 C3.3 0 6.6 0 10 0 C7.56063743 2.43936257 5.10778913 3.50587061 2 5 C0.948125 5.5775 -0.10375 6.155 -1.1875 6.75 C-4 8 -4 8 -7 7 C-4.64046906 4.64046906 -3.22104383 4.50858587 0 4 C0 2.68 0 1.36 0 0 Z " fill="#FCF6DA" transform="translate(358,96)"/>
<path d="M0 0 C9.405 1.485 9.405 1.485 19 3 C19 2.34 19 1.68 19 1 C20.98 1.66 22.96 2.32 25 3 C25 3.33 25 3.66 25 4 C21.95778935 4.08132642 18.9177762 4.14065374 15.875 4.1875 C14.59109375 4.22520508 14.59109375 4.22520508 13.28125 4.26367188 C8.05384474 4.32398809 4.56718676 3.85261993 0 1 C0 0.67 0 0.34 0 0 Z " fill="#E17C4A" transform="translate(281,183)"/>
<path d="M0 0 C7.75 -0.125 7.75 -0.125 10 1 C10 1.66 10 2.32 10 3 C10.99 3.33 11.98 3.66 13 4 C11.39620659 4.05416188 9.79188594 4.09286638 8.1875 4.125 C7.29417969 4.14820313 6.40085937 4.17140625 5.48046875 4.1953125 C3 4 3 4 0 2 C0 1.34 0 0.68 0 0 Z " fill="#F58845" transform="translate(300,182)"/>
<path d="M0 0 C1.32 0 2.64 0 4 0 C5.0502717 3.9676931 4.99716532 7.01133873 4 11 C3.01 11.495 3.01 11.495 2 12 C1.34 8.04 0.68 4.08 0 0 Z " fill="#FAE9E1" transform="translate(402,171)"/>
<path d="M0 0 C0.144375 0.598125 0.28875 1.19625 0.4375 1.8125 C0.8872439 3.56150404 1.42892341 5.28677023 2 7 C1.34 7 0.68 7 0 7 C-0.268125 7.61875 -0.53625 8.2375 -0.8125 8.875 C-2 11 -2 11 -5 13 C-5.66 12.34 -6.32 11.68 -7 11 C-6.01 10.67 -5.02 10.34 -4 10 C-3.26824885 7.92361328 -3.26824885 7.92361328 -2.9375 5.5 C-2.52734375 3.03125 -2.52734375 3.03125 -2 1 C-1.34 0.67 -0.68 0.34 0 0 Z " fill="#F4E1D2" transform="translate(405,184)"/>
<path d="M0 0 C0 0.66 0 1.32 0 2 C-0.66 2 -1.32 2 -2 2 C-2 2.66 -2 3.32 -2 4 C-3.75 5.7265625 -3.75 5.7265625 -6 7.625 C-6.7425 8.25664062 -7.485 8.88828125 -8.25 9.5390625 C-8.8275 10.02117187 -9.405 10.50328125 -10 11 C-10.33 10.01 -10.66 9.02 -11 8 C-10.01 7.67 -9.02 7.34 -8 7 C-7.64587656 5.67203709 -7.31478446 4.33783393 -7 3 C-4.6442511 -0.14099853 -4.21868146 0 0 0 Z " fill="#FBF7EB" transform="translate(296,158)"/>
<path d="M0 0 C-0.33 0.66 -0.66 1.32 -1 2 C-3.28515625 2.6328125 -3.28515625 2.6328125 -6.0625 3.125 C-6.98160156 3.29257813 -7.90070313 3.46015625 -8.84765625 3.6328125 C-9.91306641 3.81457031 -9.91306641 3.81457031 -11 4 C-11 3.34 -11 2.68 -11 2 C-11.66 2 -12.32 2 -13 2 C-13 1.34 -13 0.68 -13 0 C-11.58456585 -0.19658808 -10.16755969 -0.38187546 -8.75 -0.5625 C-7.96109375 -0.66691406 -7.1721875 -0.77132812 -6.359375 -0.87890625 C-3.99467126 -1.00027349 -2.2488963 -0.69633257 0 0 Z " fill="#F9A046" transform="translate(385,153)"/>
<path d="M0 0 C0.95006857 2.8502057 0.97268258 4.86049867 0.875 7.9375 C0.81094657 11.75935447 1.70379767 13.87716483 4 17 C4.33 17.66 4.66 18.32 5 19 C3.0625 18.25 3.0625 18.25 1 17 C0.375 14.9375 0.375 14.9375 0 13 C-0.66 12.67 -1.32 12.34 -2 12 C-2.05422947 10.5629191 -2.09289723 9.12524538 -2.125 7.6875 C-2.14820313 6.88699219 -2.17140625 6.08648437 -2.1953125 5.26171875 C-2 3 -2 3 0 0 Z " fill="#FEE4CB" transform="translate(271,162)"/>
<path d="M0 0 C2.31 0.33 4.62 0.66 7 1 C7.33 1.99 7.66 2.98 8 4 C8.99 4.33 9.98 4.66 11 5 C11.33 4.34 11.66 3.68 12 3 C12.33 4.32 12.66 5.64 13 7 C11.2265625 7.67578125 11.2265625 7.67578125 9 8 C7.1484375 6.85546875 7.1484375 6.85546875 5.375 5.1875 C4.78460938 4.64480469 4.19421875 4.10210937 3.5859375 3.54296875 C2.38156146 2.37122359 1.18817262 1.18817262 0 0 Z " fill="#E3AE6C" transform="translate(393,158)"/>
<path d="M0 0 C0.33 0.66 0.66 1.32 1 2 C1.66 2 2.32 2 3 2 C2.67 2.99 2.34 3.98 2 5 C2 4.34 2 3.68 2 3 C1.34 3 0.68 3 0 3 C0 4.65 0 6.3 0 8 C-0.99 8 -1.98 8 -3 8 C-4 7 -4 7 -4.0625 4.4375 C-4.041875 3.633125 -4.02125 2.82875 -4 2 C-2.68 1.34 -1.36 0.68 0 0 Z " fill="#F88D46" transform="translate(330,156)"/>
<path d="M0 0 C-0.66 2.97 -1.32 5.94 -2 9 C-2.33 9 -2.66 9 -3 9 C-3 6.69 -3 4.38 -3 2 C-5.64 2.66 -8.28 3.32 -11 4 C-7.95841042 -0.56238437 -5.1474794 -0.11438843 0 0 Z " fill="#E1AE78" transform="translate(323,112)"/>
<path d="M0 0 C0.99 0.33 1.98 0.66 3 1 C-0.3 4.63 -3.6 8.26 -7 12 C-7.33 11.01 -7.66 10.02 -8 9 C-7.34 8.01 -6.68 7.02 -6 6 C-5.01 6 -4.02 6 -3 6 C-3 5.34 -3 4.68 -3 4 C-2.34 4 -1.68 4 -1 4 C-0.67 2.68 -0.34 1.36 0 0 Z " fill="#734846" transform="translate(357,230)"/>
<path d="M0 0 C1.65 0 3.3 0 5 0 C5.66 1.32 6.32 2.64 7 4 C4.69 4.66 2.38 5.32 0 6 C-1.24546405 3.50907189 -0.7767578 2.58919267 0 0 Z " fill="#FBF1E4" transform="translate(380,171)"/>
<path d="M0 0 C0.33 1.32 0.66 2.64 1 4 C0.34 4 -0.32 4 -1 4 C-0.34 6.64 0.32 9.28 1 12 C0.34 12 -0.32 12 -1 12 C-1.33 9.36 -1.66 6.72 -2 4 C-3.98 4.33 -5.96 4.66 -8 5 C-5.44008376 2.98863724 -2.95409701 1.37154504 0 0 Z " fill="#FDE3C6" transform="translate(319,149)"/>
<path d="M0 0 C1.32 0.66 2.64 1.32 4 2 C2.92570402 2.84495189 1.84010798 3.67554858 0.75 4.5 C-0.15492188 5.19609375 -0.15492188 5.19609375 -1.078125 5.90625 C-3 7 -3 7 -7 7 C-7 6.34 -7 5.68 -7 5 C-5.46875 3.7109375 -5.46875 3.7109375 -3.5 2.375 C-2.8503125 1.92898437 -2.200625 1.48296875 -1.53125 1.0234375 C-1.0259375 0.68570313 -0.520625 0.34796875 0 0 Z " fill="#FCEABA" transform="translate(369,115)"/>
<path d="M0 0 C0.33 0 0.66 0 1 0 C1 6.6 1 13.2 1 20 C2.32 20.66 3.64 21.32 5 22 C3.68 22 2.36 22 1 22 C0 21 0 21 -0.11352539 18.95874023 C-0.10828857 18.08419189 -0.10305176 17.20964355 -0.09765625 16.30859375 C-0.09443359 15.36435547 -0.09121094 14.42011719 -0.08789062 13.44726562 C-0.07951172 12.45404297 -0.07113281 11.46082031 -0.0625 10.4375 C-0.05798828 9.44041016 -0.05347656 8.44332031 -0.04882812 7.41601562 C-0.03700007 4.94395151 -0.02051849 2.47200482 0 0 Z " fill="#6D3B3C" transform="translate(314,252)"/>
<path d="M0 0 C3.96 0 7.92 0 12 0 C12 1.32 12 2.64 12 4 C11.34 4 10.68 4 10 4 C10 3.34 10 2.68 10 2 C8.35 2 6.7 2 5 2 C5 2.66 5 3.32 5 4 C2.69 4 0.38 4 -2 4 C-2 3.34 -2 2.68 -2 2 C-1.34 2 -0.68 2 0 2 C0 1.34 0 0.68 0 0 Z " fill="#7C423D" transform="translate(289,189)"/>
<path d="M0 0 C2.97903734 2.97903734 4 5.80285329 4 10 C0.125 8.125 0.125 8.125 -1 7 C-1.125 4 -1.125 4 -1 1 C-0.67 0.67 -0.34 0.34 0 0 Z " fill="#F07434" transform="translate(322,153)"/>
<path d="M0 0 C0.66 0.33 1.32 0.66 2 1 C-0.90673575 5.22797927 -0.90673575 5.22797927 -3 7 C-6.8125 7.375 -6.8125 7.375 -10 7 C-6.76478258 4.51137122 -3.40739705 2.24578442 0 0 Z " fill="#F1BE73" transform="translate(373,116)"/>
<path d="M0 0 C0.66 0.66 1.32 1.32 2 2 C-2.30769231 5.93846154 -2.30769231 5.93846154 -5.8125 6.25 C-6.534375 6.1675 -7.25625 6.085 -8 6 C-7.67 5.01 -7.34 4.02 -7 3 C-3.4375 1.3125 -3.4375 1.3125 0 0 Z " fill="#E4BFAD" transform="translate(395,196)"/>
<path d="M0 0 C0.33 0 0.66 0 1 0 C1 3.63 1 7.26 1 11 C-0.98 11 -2.96 11 -5 11 C-5.33 10.34 -5.66 9.68 -6 9 C-4.68 8.67 -3.36 8.34 -2 8 C-1.34 5.36 -0.68 2.72 0 0 Z " fill="#F1C47E" transform="translate(361,176)"/>
<path d="M0 0 C-0.1875 2.375 -0.1875 2.375 -1 5 C-3.375 6.4375 -3.375 6.4375 -6 7 C-6.99 6.34 -7.98 5.68 -9 5 C-7.87926138 4.16094435 -6.75325453 3.32892169 -5.625 2.5 C-4.99851562 2.0359375 -4.37203125 1.571875 -3.7265625 1.09375 C-2 0 -2 0 0 0 Z " fill="#8F524C" transform="translate(378,162)"/>
<path d="M0 0 C0.763125 0.20625 1.52625 0.4125 2.3125 0.625 C1.6525 1.945 0.9925 3.265 0.3125 4.625 C-2.6875 4.625 -2.6875 4.625 -4.375 3.125 C-4.808125 2.63 -5.24125 2.135 -5.6875 1.625 C-2.6875 -0.375 -2.6875 -0.375 0 0 Z " fill="#7F3F48" transform="translate(393.6875,168.375)"/>
<path d="M0 0 C0.33 0 0.66 0 1 0 C1.738041 14.78132118 1.738041 14.78132118 -3 21 C-3.6875 19.25 -3.6875 19.25 -4 17 C-3.2884375 16.14921875 -3.2884375 16.14921875 -2.5625 15.28125 C-0.48051875 12.24155737 -0.49510078 9.90201551 -0.3125 6.25 C-0.24675781 5.07953125 -0.18101562 3.9090625 -0.11328125 2.703125 C-0.05720703 1.36507812 -0.05720703 1.36507812 0 0 Z " fill="#FDEDC8" transform="translate(365,138)"/>
<path d="M0 0 C0.9075 0.103125 1.815 0.20625 2.75 0.3125 C2.75 0.9725 2.75 1.6325 2.75 2.3125 C1.780625 2.60125 0.81125 2.89 -0.1875 3.1875 C-3.35664203 3.95464682 -3.35664203 3.95464682 -4.25 6.3125 C-5.24 5.9825 -6.23 5.6525 -7.25 5.3125 C-4.05 0.38942308 -4.05 0.38942308 0 0 Z " fill="#653738" transform="translate(353.25,216.6875)"/>
<path d="M0 0 C0 0.66 0 1.32 0 2 C0.66 2.33 1.32 2.66 2 3 C-0.70879335 4.35439668 -3.00933268 4.06501451 -6 4 C-6 2.68 -6 1.36 -6 0 C-3.50907189 -1.24546405 -2.58919267 -0.7767578 0 0 Z " fill="#5F2528" transform="translate(391,195)"/>
<path d="M0 0 C0.33 0 0.66 0 1 0 C1.125 3.375 1.125 3.375 1 7 C-1 9 -1 9 -3.625 9.125 C-4.40875 9.08375 -5.1925 9.0425 -6 9 C-6 8.01 -6 7.02 -6 6 C-4.35 5.67 -2.7 5.34 -1 5 C-0.67 3.35 -0.34 1.7 0 0 Z " fill="#E1C3B0" transform="translate(394,177)"/>
<path d="M0 0 C0.33 1.32 0.66 2.64 1 4 C3.31 4.66 5.62 5.32 8 6 C7.67 6.66 7.34 7.32 7 8 C5.35 8 3.7 8 2 8 C2 7.34 2 6.68 2 6 C1.01 6 0.02 6 -1 6 C-1.33 4.68 -1.66 3.36 -2 2 C-1.34 2 -0.68 2 0 2 C0 1.34 0 0.68 0 0 Z " fill="#FDFAF2" transform="translate(290,169)"/>
<path d="M0 0 C0.33 0.66 0.66 1.32 1 2 C1.66 2 2.32 2 3 2 C3.33 2.99 3.66 3.98 4 5 C3.34 5 2.68 5 2 5 C2 5.66 2 6.32 2 7 C0.68 7 -0.64 7 -2 7 C-1.125 1.125 -1.125 1.125 0 0 Z " fill="#E9542B" transform="translate(297,164)"/>
<path d="M0 0 C0 0.99 0 1.98 0 3 C-0.99 3 -1.98 3 -3 3 C-3 3.66 -3 4.32 -3 5 C-4.65 5.66 -6.3 6.32 -8 7 C-8 4 -8 4 -6.6875 2.375 C-4.55183556 0.63482898 -2.75958004 0 0 0 Z " fill="#F29842" transform="translate(342,130)"/>
<path d="M0 0 C0.66 0.33 1.32 0.66 2 1 C0.75965588 2.32162881 -0.49268626 3.63200453 -1.75 4.9375 C-2.44609375 5.66839844 -3.1421875 6.39929688 -3.859375 7.15234375 C-6.00599725 9.00517646 -7.23532932 9.60771565 -10 10 C-9.67 9.01 -9.34 8.02 -9 7 C-6.9375 6.3125 -6.9375 6.3125 -5 6 C-5 5.34 -5 4.68 -5 4 C-3.37373596 2.61767557 -1.7074998 1.28062485 0 0 Z " fill="#DAA264" transform="translate(372,120)"/>
<path d="M0 0 C0.33 0.66 0.66 1.32 1 2 C3.02463255 2.65213292 3.02463255 2.65213292 5 3 C3.68 3 2.36 3 1 3 C1 3.66 1 4.32 1 5 C-0.98 5.33 -2.96 5.66 -5 6 C-3.63016497 2.83884224 -3.0109362 2.0072908 0 0 Z " fill="#FDF5D5" transform="translate(371,98)"/>
<path d="M0 0 C1.485 0.99 1.485 0.99 3 2 C2.67 3.65 2.34 5.3 2 7 C1.34 7 0.68 7 0 7 C-0.33 8.32 -0.66 9.64 -1 11 C-1.125 3.375 -1.125 3.375 0 0 Z " fill="#7D4846" transform="translate(366,173)"/>
<path d="M0 0 C0.66 0.33 1.32 0.66 2 1 C2 1.66 2 2.32 2 3 C1.34 3.66 0.68 4.32 0 5 C0 5.66 0 6.32 0 7 C-3.96 8.98 -3.96 8.98 -8 11 C-8 10.34 -8 9.68 -8 9 C-7.21625 8.566875 -6.4325 8.13375 -5.625 7.6875 C-2.55987117 5.71706003 -2.07275117 4.39704539 -1 1 C-0.67 0.67 -0.34 0.34 0 0 Z " fill="#E49858" transform="translate(332,135)"/>
<path d="M0 0 C0.33 0 0.66 0 1 0 C1 1.65 1 3.3 1 5 C2.65 5.33 4.3 5.66 6 6 C3.08235 7.9451 1.37462715 8.45276317 -2 9 C-1.51421457 5.87709365 -1.0013988 3.00419641 0 0 Z " fill="#D49770" transform="translate(305,131)"/>
<path d="M0 0 C1.32 0.33 2.64 0.66 4 1 C3.67 2.32 3.34 3.64 3 5 C4.65 5.33 6.3 5.66 8 6 C7.67 6.99 7.34 7.98 7 9 C6.34 9 5.68 9 5 9 C5 8.34 5 7.68 5 7 C4.360625 6.773125 3.72125 6.54625 3.0625 6.3125 C1 5 1 5 0.25 2.375 C0.1675 1.59125 0.085 0.8075 0 0 Z " fill="#F3B867" transform="translate(355,113)"/>
<path d="M0 0 C1.17219543 0.78345715 2.33763668 1.57702836 3.5 2.375 C4.47453125 3.03628906 4.47453125 3.03628906 5.46875 3.7109375 C5.9740625 4.13632813 6.479375 4.56171875 7 5 C7 5.66 7 6.32 7 7 C3.75791433 6.64950425 2.38472296 6.43778819 0.1875 3.9375 C-0.4003125 2.9784375 -0.4003125 2.9784375 -1 2 C-0.67 1.34 -0.34 0.68 0 0 Z " fill="#FCE8CF" transform="translate(328,172)"/>
<path d="M0 0 C0.33 1.32 0.66 2.64 1 4 C4.465 3.505 4.465 3.505 8 3 C6.875 4.5 6.875 4.5 5 6 C1.8125 6.1875 1.8125 6.1875 -1 6 C-1.042721 4.33388095 -1.04063832 2.66617115 -1 1 C-0.67 0.67 -0.34 0.34 0 0 Z " fill="#C8684C" transform="translate(294,167)"/>
<path d="M0 0 C0.33 0 0.66 0 1 0 C1 2.64 1 5.28 1 8 C-1.31 9.32 -3.62 10.64 -6 12 C-5.67 10.68 -5.34 9.36 -5 8 C-3.68 8 -2.36 8 -1 8 C-0.67 5.36 -0.34 2.72 0 0 Z " fill="#FEEEC6" transform="translate(343,114)"/>
<path d="M0 0 C0.33 1.32 0.66 2.64 1 4 C-1.4375 6.75 -1.4375 6.75 -4 9 C-4.99 8.67 -5.98 8.34 -7 8 C-4.69 5.36 -2.38 2.72 0 0 Z " fill="#714141" transform="translate(340,228)"/>
<path d="M0 0 C1.65 1.65 3.3 3.3 5 5 C4.67 5.99 4.34 6.98 4 8 C3.01 8 2.02 8 1 8 C-0.35439668 5.29120665 -0.06501451 2.99066732 0 0 Z " fill="#F1D7CA" transform="translate(368,191)"/>
<path d="M0 0 C2 3.75 2 3.75 2 6 C3.32 6.33 4.64 6.66 6 7 C6 7.33 6 7.66 6 8 C3.625 8.125 3.625 8.125 1 8 C-1 6 -1 6 -1.1875 3.4375 C-1 1 -1 1 0 0 Z " fill="#6D3F3C" transform="translate(381,177)"/>
<path d="M0 0 C0.66 0.66 1.32 1.32 2 2 C1.625 5.125 1.625 5.125 1 8 C0.34 8 -0.32 8 -1 8 C-1.33 8.99 -1.66 9.98 -2 11 C-1.85892253 9.54119891 -1.71197585 8.08296449 -1.5625 6.625 C-1.48128906 5.81289062 -1.40007812 5.00078125 -1.31640625 4.1640625 C-1 2 -1 2 0 0 Z " fill="#FDEDD4" transform="translate(323,113)"/>
<path d="M0 0 C3.3 0 6.6 0 10 0 C9.67 1.32 9.34 2.64 9 4 C6.03 3.01 3.06 2.02 0 1 C0 0.67 0 0.34 0 0 Z M2 3 C5 4 5 4 5 4 Z " fill="#7F3B29" transform="translate(303,187)"/>
<path d="M0 0 C0.99 0.66 1.98 1.32 3 2 C2.67 3.32 2.34 4.64 2 6 C0.68 6 -0.64 6 -2 6 C-2 4.35 -2 2.7 -2 1 C-1.34 0.67 -0.68 0.34 0 0 Z " fill="#FBE7D9" transform="translate(377,178)"/>
<path d="M0 0 C1.231394 2.46278801 1.07159196 4.2795055 1 7 C0.01 7.33 -0.98 7.66 -2 8 C-2.66 8.66 -3.32 9.32 -4 10 C-3.5205537 5.78087253 -2.83374881 3.20336822 0 0 Z " fill="#FADCB8" transform="translate(366,166)"/>
<path d="M0 0 C-0.33 0.99 -0.66 1.98 -1 3 C-1.66 3 -2.32 3 -3 3 C-3.0825 3.61875 -3.165 4.2375 -3.25 4.875 C-4 7 -4 7 -6.0625 8.25 C-6.701875 8.4975 -7.34125 8.745 -8 9 C-6.68994234 5.06982701 -4.75047804 0 0 0 Z " fill="#FCE1C6" transform="translate(292,158)"/>
<path d="M0 0 C-0.66 0.66 -1.32 1.32 -2 2 C-2.33 2.66 -2.66 3.32 -3 4 C-4.65 3.67 -6.3 3.34 -8 3 C-8 2.34 -8 1.68 -8 1 C-4.93251126 -0.86240388 -3.40254489 -1.2151946 0 0 Z " fill="#FBE1BE" transform="translate(382,158)"/>
<path d="M0 0 C0.99 0 1.98 0 3 0 C1.73058503 3.91402949 0.48832306 5.79072873 -3 8 C-3 6.68 -3 5.36 -3 4 C-2.34 4 -1.68 4 -1 4 C-0.67 2.68 -0.34 1.36 0 0 Z " fill="#E89954" transform="translate(367,160)"/>
<path d="M0 0 C2.64 1.65 5.28 3.3 8 5 C7.01 5.33 6.02 5.66 5 6 C4.34 5.67 3.68 5.34 3 5 C2.67 5.66 2.34 6.32 2 7 C1.34 6.67 0.68 6.34 0 6 C0 4.02 0 2.04 0 0 Z " fill="#F5DFD9" transform="translate(344,270)"/>
<path d="M0 0 C0.33 0 0.66 0 1 0 C0.67 2.31 0.34 4.62 0 7 C-1.98 7.66 -3.96 8.32 -6 9 C-4.73046875 7.53515625 -3.4609375 6.0703125 -2.19140625 4.60546875 C-0.79128769 2.89287029 -0.79128769 2.89287029 0 0 Z " fill="#E5C3B7" transform="translate(402,187)"/>
<path d="M0 0 C0.99 0 1.98 0 3 0 C2.4140625 6.15234375 2.4140625 6.15234375 2 8 C1.01 8.495 1.01 8.495 0 9 C0 6.03 0 3.06 0 0 Z " fill="#6D3D3E" transform="translate(314,217)"/>
<path d="M0 0 C2.97 0.33 5.94 0.66 9 1 C9 1.33 9 1.66 9 2 C8.2575 2.144375 7.515 2.28875 6.75 2.4375 C4.47972261 2.90187492 2.24240521 3.41863569 0 4 C0 2.68 0 1.36 0 0 Z " fill="#835250" transform="translate(379,189)"/>
<path d="M0 0 C0.99 0.66 1.98 1.32 3 2 C0.23776722 4.76223278 -2.20706617 4.57856291 -6 5 C-6 4.34 -6 3.68 -6 3 C-4.02 2.01 -2.04 1.02 0 0 Z " fill="#6F3836" transform="translate(391,188)"/>
<path d="M0 0 C0.99 0 1.98 0 3 0 C3 2 3 2 1.6875 3.4375 C1.130625 3.953125 0.57375 4.46875 0 5 C-0.556875 5.556875 -1.11375 6.11375 -1.6875 6.6875 C-2.120625 7.120625 -2.55375 7.55375 -3 8 C-2.67 6.02 -2.34 4.04 -2 2 C-1.34 2 -0.68 2 0 2 C0 1.34 0 0.68 0 0 Z " fill="#FAEADE" transform="translate(369,164)"/>
<path d="M0 0 C-2.48952921 2.66735273 -4.63408134 4.55746343 -8 6 C-8 3 -8 3 -6.8125 1.3125 C-4.44258278 -0.40364695 -2.85974334 -0.23187108 0 0 Z " fill="#E5A56D" transform="translate(340,135)"/>
<path d="M0 0 C0 0.99 0 1.98 0 3 C-1.75 4.75 -1.75 4.75 -4 6 C-5.32 5.67 -6.64 5.34 -8 5 C-4.04 2.525 -4.04 2.525 0 0 Z " fill="#EDC485" transform="translate(330,130)"/>
<path d="M0 0 C1 3.875 1 3.875 1 5 C-0.98 5 -2.96 5 -5 5 C-5 4.34 -5 3.68 -5 3 C-2.5 1.375 -2.5 1.375 0 0 Z " fill="#ECCB8C" transform="translate(363,107)"/>
<path d="M0 0 C-0.33 1.32 -0.66 2.64 -1 4 C-2.65 4.33 -4.3 4.66 -6 5 C-6.33 4.34 -6.66 3.68 -7 3 C-3.375 0 -3.375 0 0 0 Z " fill="#ECCFA4" transform="translate(380,105)"/>
<path d="M0 0 C-0.66 1.32 -1.32 2.64 -2 4 C-4.31 3.67 -6.62 3.34 -9 3 C-4.5 0 -4.5 0 0 0 Z " fill="#EBD3A5" transform="translate(372,96)"/>
<path d="M0 0 C2.125 0.9375 2.125 0.9375 4 2 C2 4 2 4 -0.625 4.125 C-1.40875 4.08375 -2.1925 4.0425 -3 4 C-2.67 3.01 -2.34 2.02 -2 1 C-1.34 0.67 -0.68 0.34 0 0 Z " fill="#FCE5D4" transform="translate(384,186)"/>
<path d="M0 0 C1.98 0.99 1.98 0.99 4 2 C3.34 3.98 2.68 5.96 2 8 C1.67 8 1.34 8 1 8 C0.67 5.36 0.34 2.72 0 0 Z " fill="#693434" transform="translate(394,174)"/>
<path d="M0 0 C0.33 0.66 0.66 1.32 1 2 C1.99 2.33 2.98 2.66 4 3 C-2.625 5 -2.625 5 -6 5 C-5.34 4.01 -4.68 3.02 -4 2 C-2.68 2 -1.36 2 0 2 C0 1.34 0 0.68 0 0 Z " fill="#754244" transform="translate(382,167)"/>
<path d="M0 0 C0.66 0.66 1.32 1.32 2 2 C-4.0546875 2.9765625 -4.0546875 2.9765625 -6 3 C-6.66 2.34 -7.32 1.68 -8 1 C-5.23749964 -0.38125018 -3.05268901 -0.19079306 0 0 Z " fill="#FEF6E6" transform="translate(386,158)"/>
<path d="M0 0 C-0.625 1.9375 -0.625 1.9375 -2 4 C-5.125 4.75 -5.125 4.75 -8 5 C-3.375 0 -3.375 0 0 0 Z " fill="#E9C890" transform="translate(383,111)"/>
<path d="M0 0 C2.475 0.99 2.475 0.99 5 2 C4.67 3.65 4.34 5.3 4 7 C3.67 6.34 3.34 5.68 3 5 C3.33 4.34 3.66 3.68 4 3 C2.02 3.33 0.04 3.66 -2 4 C-1.34 2.68 -0.68 1.36 0 0 Z " fill="#FDF3D7" transform="translate(379,108)"/>
<path d="M0 0 C-2.55068845 2.35448165 -3.71017358 2.98327924 -7.25 3.1875 C-8.1575 3.125625 -9.065 3.06375 -10 3 C-3.66666667 -1.22222222 -3.66666667 -1.22222222 0 0 Z " fill="#704445" transform="translate(362,273)"/>
<path d="M0 0 C4.8 2.46153846 4.8 2.46153846 5.8125 5.1875 C5.874375 5.785625 5.93625 6.38375 6 7 C5.01 7.495 5.01 7.495 4 8 C3.67 6.35 3.34 4.7 3 3 C2.01 2.67 1.02 2.34 0 2 C0 1.34 0 0.68 0 0 Z " fill="#724547" transform="translate(356,217)"/>
<path d="M0 0 C1.485 0.99 1.485 0.99 3 2 C3 2.99 3 3.98 3 5 C3.66 5.33 4.32 5.66 5 6 C3.68 6.33 2.36 6.66 1 7 C0.67 4.69 0.34 2.38 0 0 Z " fill="#7C4133" transform="translate(276,180)"/>
<path d="M0 0 C5.445 1.485 5.445 1.485 11 3 C11 3.33 11 3.66 11 4 C5.04296875 4.390625 5.04296875 4.390625 3 4 C2.01 2.68 1.02 1.36 0 0 Z " fill="#D77747" transform="translate(335,175)"/>
<path d="M0 0 C0.33 0.99 0.66 1.98 1 3 C-0.4375 5.1875 -0.4375 5.1875 -2 7 C-2.66 6.01 -3.32 5.02 -4 4 C-2.68 2.68 -1.36 1.36 0 0 Z " fill="#804240" transform="translate(371,167)"/>
<path d="M0 0 C1.875 0.25 1.875 0.25 4 1 C5.25 3.0625 5.25 3.0625 6 5 C4.35 4.67 2.7 4.34 1 4 C0.67 2.68 0.34 1.36 0 0 Z " fill="#7C4846" transform="translate(396,167)"/>
<path d="M0 0 C1.9375 0.75 1.9375 0.75 4 2 C4.75 4.125 4.75 4.125 5 6 C3.68 5.67 2.36 5.34 1 5 C0.67 3.35 0.34 1.7 0 0 Z " fill="#FEF0D2" transform="translate(395,160)"/>
<path d="M0 0 C0.99 0 1.98 0 3 0 C3 0.99 3 1.98 3 3 C0.5 4.6875 0.5 4.6875 -2 6 C-1.125 1.125 -1.125 1.125 0 0 Z " fill="#ED6531" transform="translate(282,157)"/>
<path d="M0 0 C2.625 -0.1875 2.625 -0.1875 5 0 C3.68 1.32 2.36 2.64 1 4 C0.01 3.67 -0.98 3.34 -2 3 C-1.34 2.01 -0.68 1.02 0 0 Z " fill="#FEF1D5" transform="translate(321,148)"/>
<path d="M0 0 C-0.33 0.66 -0.66 1.32 -1 2 C-3.5625 2.625 -3.5625 2.625 -6 3 C-6.33 2.01 -6.66 1.02 -7 0 C-4.3333581 -1.33332095 -2.83319697 -0.67102033 0 0 Z " fill="#FEECD1" transform="translate(313,139)"/>
<path d="M0 0 C0.33 0.66 0.66 1.32 1 2 C0.67 2.66 0.34 3.32 0 4 C-1.32 4 -2.64 4 -4 4 C-4 4.66 -4 5.32 -4 6 C-4.99 5.67 -5.98 5.34 -7 5 C-4.69 3.35 -2.38 1.7 0 0 Z " fill="#FEEFD3" transform="translate(339,136)"/>
<path d="M0 0 C1.32 0 2.64 0 4 0 C3.67 0.99 3.34 1.98 3 3 C1.02 3.33 -0.96 3.66 -3 4 C-2.67 3.34 -2.34 2.68 -2 2 C-1.34 2 -0.68 2 0 2 C0 1.34 0 0.68 0 0 Z " fill="#E7CD9A" transform="translate(372,101)"/>
</svg>
